<?xml version="1.0" standalone="no"?>
<!DOCTYPE svg PUBLIC "-//W3C//DTD SVG 20010904//EN"
 "http://www.w3.org/TR/2001/REC-SVG-20010904/DTD/svg10.dtd">
<svg version="1.0" xmlns="http://www.w3.org/2000/svg"
 width="1242.000000pt" height="699.000000pt" viewBox="0 0 1242.000000 699.000000"
 preserveAspectRatio="xMidYMid meet">
<metadata>
Created by potrace 1.16, written by Peter Selinger 2001-2019
</metadata>
<g transform="translate(0.000000,699.000000) scale(0.100000,-0.100000)"
fill="#000000" stroke="none">
<path d="M7025 6446 c-76 -19 -135 -53 -195 -115 -83 -86 -114 -149 -117 -244
l-3 -79 -50 -45 c-62 -56 -117 -163 -130 -253 -5 -36 -10 -111 -10 -167 l0
-103 -68 0 c-59 0 -72 -3 -90 -23 -26 -27 -29 -90 -8 -140 18 -45 79 -95 130
-108 l44 -11 4 -166 c3 -164 4 -168 35 -234 58 -123 164 -209 293 -238 64 -15
88 -26 152 -72 l48 -34 -60 -42 c-33 -24 -60 -47 -60 -51 0 -5 23 -24 51 -41
39 -26 57 -46 81 -94 17 -34 32 -63 34 -65 1 -2 18 5 36 16 18 11 41 18 50 16
22 -5 164 -166 225 -255 l47 -68 -12 -62 c-34 -181 -187 -325 -357 -336 l-60
-4 -147 283 c-81 156 -155 301 -164 322 -13 27 -24 37 -41 37 -34 0 -43 29
-43 140 0 80 -3 102 -15 106 -12 5 -15 26 -15 106 0 72 -5 110 -16 134 -19 40
-56 72 -93 81 -14 3 -43 21 -63 39 -20 18 -55 38 -77 44 -35 9 -40 14 -43 43
l-3 32 -235 0 -235 0 -3 -210 c-2 -196 -1 -212 18 -243 31 -51 70 -62 220 -62
143 0 183 10 217 54 12 14 31 26 43 26 12 0 30 5 41 11 19 10 20 8 17 -23 -2
-20 -9 -34 -18 -34 -8 -1 -20 -2 -25 -3 -6 0 -21 -19 -35 -41 -23 -38 -27 -40
-73 -40 -26 0 -68 5 -93 11 -64 17 -82 -2 -113 -119 -7 -23 -25 -57 -41 -76
-17 -18 -30 -40 -30 -49 0 -18 65 -77 85 -77 7 0 17 -9 20 -20 7 -22 44 -35
75 -27 11 3 24 -1 31 -9 10 -12 -104 -14 -784 -14 l-795 0 -22 35 c-15 24 -34
38 -60 46 -37 11 -40 15 -49 63 -6 28 -74 404 -151 836 -78 432 -145 789 -149
793 -15 15 -61 -5 -91 -39 -22 -25 -30 -45 -30 -72 0 -41 265 -1528 281 -1579
6 -18 21 -41 33 -51 13 -10 26 -34 30 -56 8 -44 48 -86 81 -86 16 0 26 -9 35
-31 23 -54 73 -83 151 -87 68 -4 69 -4 69 -33 l0 -29 -908 0 c-905 0 -909 0
-928 -21 -23 -25 -32 -136 -14 -178 17 -43 53 -51 217 -51 l143 0 -20 -37
c-43 -80 -16 -174 60 -214 31 -17 60 -19 247 -19 l213 0 0 -1175 0 -1175 105
0 105 0 0 506 c0 401 3 505 13 501 6 -2 198 -124 426 -271 227 -146 421 -266
431 -266 30 0 53 35 45 69 -5 25 1 42 31 92 43 68 49 116 19 149 -10 11 -28
20 -39 20 -17 1 -12 9 29 45 l50 45 31 -35 c17 -19 35 -35 39 -35 14 0 145
112 145 124 0 7 -4 16 -9 21 -6 6 107 106 307 272 l317 261 3 -754 2 -755 103
3 102 3 3 840 2 840 68 45 c72 48 268 150 287 150 6 0 150 -223 320 -496 283
-456 306 -496 289 -508 -16 -12 -15 -18 27 -84 24 -39 49 -71 56 -72 7 0 28 8
48 17 33 16 59 12 39 -6 -5 -5 -110 -37 -233 -72 -195 -54 -227 -66 -255 -93
-33 -33 -89 -161 -87 -199 1 -12 2 -44 4 -70 2 -35 8 -53 22 -63 25 -18 23
-19 150 20 l110 34 22 -48 c75 -170 298 -214 431 -87 47 44 72 99 80 169 l7
61 122 47 122 48 53 -20 c63 -24 132 -20 185 12 l36 21 143 -57 c143 -57 144
-58 144 -89 0 -100 70 -205 161 -245 77 -32 177 -26 245 15 97 60 149 182 121
289 l-13 54 33 -5 c28 -5 33 -3 33 14 0 10 -13 39 -28 64 -111 175 -369 202
-517 55 -28 -28 -58 -61 -66 -73 l-14 -22 -88 36 -88 35 8 47 c4 25 8 132 8
236 0 176 -2 193 -22 231 -20 38 -84 104 -101 104 -4 0 -7 93 -7 207 l0 208
55 21 c30 11 89 42 130 70 l75 49 171 5 c141 4 175 8 198 23 34 23 66 74 66
108 0 23 3 25 29 21 33 -5 56 23 45 53 -6 16 -5 16 24 1 28 -14 32 -14 52 2
19 15 21 22 11 40 -10 18 -8 21 15 24 36 4 53 31 37 58 -11 16 -10 21 7 30 24
13 26 55 3 68 -14 9 -14 10 5 16 26 9 30 47 6 67 -14 11 -14 13 0 21 20 11 21
52 1 68 -13 10 -13 15 -1 32 8 11 12 26 10 32 -2 6 9 19 26 29 16 10 35 27 41
39 6 11 24 109 39 218 54 370 123 645 225 895 82 202 92 241 77 312 -24 116
-106 200 -217 223 -142 29 -286 -61 -323 -202 -16 -60 -182 -1305 -182 -1363
0 -40 5 -52 33 -80 20 -20 48 -36 70 -40 35 -7 36 -9 43 -61 3 -30 10 -57 15
-60 5 -3 3 -14 -4 -24 -9 -16 -9 -24 1 -41 10 -15 11 -24 3 -32 -6 -6 -11 -21
-11 -33 0 -30 -27 -91 -50 -114 -11 -11 -32 -20 -46 -20 -18 0 -28 -6 -31 -21
-5 -16 -10 -19 -27 -13 -11 4 -83 9 -158 11 l-137 4 27 41 c25 38 27 51 30
154 5 161 -43 383 -133 613 -20 52 -38 121 -45 176 -6 49 -20 117 -31 150 -47
139 -163 283 -288 357 -73 42 -331 290 -331 318 0 12 -17 25 -49 39 -61 26
-62 26 -95 0 -25 -20 -28 -20 -52 -4 l-26 17 59 57 c39 39 72 61 101 70 52 15
116 70 143 124 18 33 89 359 89 404 0 9 18 32 41 51 86 74 124 171 123 312 -1
90 -8 122 -49 223 -6 14 -2 17 24 17 35 0 38 8 15 53 -9 17 -34 80 -56 140
-51 145 -81 204 -137 271 -98 119 -205 167 -370 165 -53 0 -118 -6 -146 -13z
m294 -42 c69 -20 126 -59 186 -126 53 -61 87 -129 140 -278 21 -58 40 -111 43
-119 4 -10 -3 -9 -26 5 -53 31 -57 8 -13 -77 86 -168 76 -355 -26 -477 l-28
-34 -35 54 c-48 73 -103 103 -190 103 -58 0 -73 -4 -129 -38 -35 -21 -66 -36
-68 -33 -8 8 18 78 54 142 110 200 61 419 -114 512 -103 54 -237 62 -322 18
-16 -9 -32 -16 -36 -16 -3 0 -5 24 -5 53 0 71 34 137 107 210 32 32 80 69 108
82 92 45 236 52 354 19z m-239 -391 c136 -67 196 -206 156 -363 -9 -36 -28
-82 -42 -103 -32 -49 -95 -229 -84 -241 4 -4 51 17 103 49 78 46 103 56 143
57 104 2 176 -50 189 -136 6 -37 3 -55 -16 -93 -28 -55 -67 -82 -136 -91 l-48
-7 -5 -125 c-5 -114 -8 -131 -36 -190 -32 -67 -96 -140 -146 -166 -15 -8 -28
-18 -28 -22 0 -4 16 -21 36 -37 l36 -31 -56 -39 -56 -38 -82 55 c-60 40 -96
56 -131 61 -131 18 -272 149 -303 282 l-7 30 24 -22 c71 -65 188 -56 276 21
70 61 83 99 83 240 0 100 3 121 17 131 15 11 13 14 -16 29 -34 18 -53 14 -33
-6 8 -8 12 -54 12 -137 0 -106 -3 -131 -21 -168 -53 -110 -198 -165 -285 -108
-51 33 -59 59 -64 209 l-5 141 -43 6 c-72 9 -130 66 -138 135 -7 60 4 68 98
74 l83 5 6 165 c4 118 10 178 22 210 37 99 146 203 247 235 67 22 194 15 250
-12z m-2780 -1274 c82 -460 150 -839 150 -842 0 -4 -8 -7 -19 -7 -34 0 -68 47
-79 108 -6 31 -42 233 -81 447 -169 938 -190 1065 -181 1089 9 25 53 62 57 49
1 -5 70 -384 153 -844z m3214 344 c-2 -10 -13 -65 -24 -123 -23 -117 -48 -165
-105 -200 -20 -12 -38 -21 -40 -19 -2 3 5 29 15 59 14 39 19 83 20 153 0 94 1
97 23 97 17 0 97 34 114 49 0 0 -1 -7 -3 -16z m-1234 -522 l0 -200 -26 -20
c-24 -19 -40 -21 -174 -21 -134 0 -150 2 -174 21 -19 15 -26 30 -26 55 0 33 1
34 38 34 79 0 151 70 152 147 0 26 3 31 16 26 24 -9 13 17 -14 35 -22 14 -22
13 -22 -29 0 -90 -60 -159 -139 -159 l-31 0 0 155 0 155 200 0 200 0 0 -199z
m238 29 c47 -29 62 -73 62 -180 l0 -90 -70 0 -70 0 0 80 0 79 -37 6 c-75 12
-83 19 -83 75 l0 50 83 0 c65 0 89 -4 115 -20z m825 -61 c12 -7 23 -13 25 -14
3 -3 -166 -296 -178 -309 -6 -5 -48 17 -105 54 l-95 63 108 75 c59 41 127 90
152 108 49 37 61 39 93 23z m157 -165 l95 -95 -46 20 c-78 33 -135 31 -178 -5
-56 -47 -61 -143 -9 -191 13 -12 63 -37 111 -57 119 -47 164 -75 221 -135 68
-74 98 -146 104 -252 3 -65 0 -100 -13 -138 l-17 -52 -53 108 c-98 197 -238
395 -394 556 l-85 87 16 28 c93 162 131 222 141 222 7 0 55 -43 107 -96z
m-1049 -120 c46 -24 114 -89 150 -145 17 -27 30 -51 28 -53 -2 -2 -24 -16 -48
-31 l-45 -27 -27 33 c-16 19 -29 37 -29 41 0 3 -19 20 -41 37 l-42 30 -43 -44
c-24 -25 -49 -45 -57 -45 -31 0 -36 -22 -14 -66 26 -54 14 -94 -28 -94 -21 0
-24 3 -17 18 6 10 6 27 1 41 -7 18 -15 22 -34 19 -22 -5 -26 0 -46 59 -11 35
-19 65 -18 67 2 1 34 17 71 35 57 27 75 42 113 96 50 70 48 70 126 29z m1135
-9 c60 -24 139 -66 177 -91 251 -172 339 -521 201 -800 -43 -87 -139 -195
-222 -250 -182 -121 -429 -136 -631 -37 -107 52 -231 176 -289 290 -23 44 -42
95 -42 111 0 46 -16 79 -45 95 -17 9 -45 48 -80 112 -61 113 -65 96 47 158
l67 37 39 -72 c21 -40 79 -149 128 -242 105 -202 153 -260 257 -311 93 -46
174 -60 262 -46 196 30 344 178 377 376 21 127 -23 265 -116 363 -60 64 -100
88 -224 137 -102 41 -132 68 -132 122 0 45 46 93 88 93 16 0 79 -20 138 -45z
m-1337 -45 c10 -5 -11 -20 -65 -45 -43 -21 -81 -39 -83 -41 -2 -2 2 -25 9 -52
11 -43 11 -52 -5 -75 -18 -28 -31 -32 -54 -18 -12 8 -12 12 2 26 19 19 22 36
7 51 -7 7 -6 21 4 45 7 19 17 50 21 69 12 55 20 60 89 53 33 -3 67 -9 75 -13z
m235 -193 c19 -26 19 -27 1 -41 -17 -12 -16 -17 30 -102 26 -49 72 -135 102
-191 l55 -103 -100 0 -101 0 -21 58 c-22 57 -39 191 -40 311 0 47 5 70 17 83
20 23 31 20 57 -15z m233 -41 l32 -65 -80 -46 c-45 -26 -82 -45 -84 -43 -8 9
-66 130 -63 133 17 13 145 84 153 85 6 0 25 -29 42 -64z m-340 -176 c-6 -47
-27 -83 -61 -105 -22 -14 -117 -16 -860 -16 -924 0 -877 -3 -910 65 -9 19 -16
48 -16 65 l0 31 926 0 927 0 -6 -40z m1183 -165 c7 -22 22 -50 33 -62 l20 -23
-38 -55 c-65 -95 -210 -211 -287 -230 -39 -10 -108 25 -174 87 l-56 53 64 12
c171 35 296 145 350 310 l22 66 26 -59 c15 -32 33 -77 40 -99z m-1149 13 c10
-29 18 -56 19 -60 0 -5 -56 -8 -125 -8 l-125 0 0 30 c0 30 0 30 56 30 60 0
119 22 137 51 14 23 16 21 38 -43z m1303 -137 c14 -32 26 -65 26 -73 0 -21
-65 -94 -114 -127 -65 -45 -157 -72 -230 -69 l-61 3 56 32 c75 42 164 127 214
202 22 33 46 61 53 61 6 0 12 7 12 15 0 31 18 13 44 -44z m386 -56 c32 -92 83
-287 95 -362 l7 -43 -150 0 -149 0 -13 61 c-8 38 -10 66 -4 74 5 7 26 34 46
61 51 67 93 155 114 237 9 37 18 66 19 65 2 -2 17 -43 35 -93z m-1366 69 c11
-28 6 -130 -6 -142 -17 -17 -3789 -17 -3806 0 -12 12 -17 114 -6 142 6 15 183
16 1909 16 1726 0 1903 -1 1909 -16z m-50 -232 c66 -42 155 -82 180 -82 9 0
42 -24 75 -54 32 -29 80 -66 107 -82 l49 -29 -215 -6 c-349 -11 -527 -52 -790
-184 l-90 -45 0 125 0 125 163 0 c151 0 167 2 207 23 79 41 104 138 55 211
l-24 36 111 0 111 0 61 -38z m-894 -434 l0 -203 -426 -350 c-234 -192 -430
-352 -435 -354 -6 -2 -17 6 -25 18 -8 12 -23 21 -32 21 -18 0 -122 -98 -122
-115 0 -6 14 -28 32 -49 l31 -38 -21 -17 c-11 -9 -47 -37 -80 -63 l-59 -47
-24 23 c-50 48 -401 276 -427 278 -15 1 -42 1 -59 -1 -35 -2 -160 -46 -180
-63 -10 -8 -13 108 -13 576 l0 586 920 0 920 0 0 -202z m1120 -166 c0 -4 -9
-13 -20 -20 -24 -14 -57 -78 -68 -128 l-7 -36 -52 83 c-28 46 -50 85 -48 87 1
2 40 7 86 11 46 5 90 9 97 10 6 0 12 -2 12 -7z m599 -310 c42 -27 94 -56 116
-64 l40 -16 2 -208 3 -209 -41 -28 c-26 -18 -49 -45 -65 -80 -21 -45 -24 -67
-24 -164 l0 -113 -26 10 c-39 15 -51 12 -78 -17 -14 -15 -27 -25 -29 -23 -12
14 -58 92 -55 95 2 1 22 12 46 24 23 12 42 25 42 29 0 21 -83 162 -96 162 -8
0 -23 -6 -34 -12 -16 -10 -22 -10 -33 2 -17 18 -337 534 -337 543 0 4 12 2 26
-3 55 -21 116 -12 205 31 87 43 210 88 243 89 10 0 53 -22 95 -48z m-2410
-695 l26 -29 -44 -39 c-24 -21 -47 -39 -50 -39 -9 0 -231 277 -231 287 0 4 16
24 36 44 l36 37 101 -116 c55 -65 112 -130 126 -145z m-704 117 l175 -118 -40
-25 c-48 -31 -56 -66 -12 -57 104 21 96 23 159 -41 59 -61 123 -93 184 -93 45
0 46 -31 3 -105 l-38 -65 -37 23 c-20 12 -208 132 -418 267 -305 196 -380 249
-378 265 1 14 22 27 72 47 112 44 124 41 330 -98z m535 -175 c0 -9 -120 -109
-131 -109 -14 0 -103 66 -116 87 -14 20 -10 25 67 87 l82 66 49 -61 c27 -34
49 -65 49 -70z m2440 52 c13 -28 22 -53 19 -55 -19 -18 -333 -165 -338 -159
-31 46 -52 85 -49 88 13 13 333 183 338 180 3 -2 17 -26 30 -54z m-19 -188
l30 -48 -33 -14 c-50 -21 -132 -19 -157 3 -12 11 -21 24 -21 30 0 12 115 74
138 75 7 1 26 -20 43 -46z m161 -30 c8 -10 24 -46 36 -79 l20 -61 -94 -28 -95
-28 -27 26 c-15 14 -57 40 -94 57 -38 18 -68 33 -68 33 0 1 33 2 73 2 58 0 83
5 130 28 31 15 63 37 70 47 15 25 29 25 49 3z m-628 -167 c-41 -35 -99 -128
-87 -140 3 -3 19 -6 35 -6 26 0 29 -3 22 -22 -3 -13 -7 -24 -8 -24 -5 -5 -217
-64 -229 -64 -25 0 -25 20 2 98 35 104 57 123 188 160 59 17 110 31 112 31 3
1 -13 -14 -35 -33z"/>
<path d="M6742 5757 c-20 -25 -43 -79 -39 -91 5 -12 172 -116 187 -116 7 0 25
90 18 94 -2 1 -32 27 -68 57 -81 69 -85 72 -98 56z"/>
</g>
</svg>
