<?xml version="1.0" encoding="utf-8"?>
<!-- Generator: Adobe Illustrator 21.0.0, SVG Export Plug-In . SVG Version: 6.00 Build 0)  -->
<svg version="1.1" id="Layer_1" xmlns="http://www.w3.org/2000/svg" xmlns:xlink="http://www.w3.org/1999/xlink" x="0px" y="0px"
	 viewBox="0 0 300 300" enable-background="new 0 0 300 300" xml:space="preserve">
<g>
	<path d="M215.5,154.3c-2.4,7-13.5,128.6-15.8,125.1c-2.3-3.5-116.1-20.3-116.1-20.3l9.7-82.3L215.5,154.3z"/>
	<path fill="#D69970" d="M115.8,188.9c0,0-1,48.9-6.6,88.7c0,0,12,13.8,46.8,13.8c27.4,0,43.8-12,43.8-12s-10.4-50.5-4.7-94.6
		L115.8,188.9z"/>
	<path fill="#BA8562" d="M194,183.6l-79,6.5c0,0,0.2,17-0.6,39.1c21.5,25.5,56.1,22,80.3,4.9C193.1,218.5,192.3,200.6,194,183.6z"/>
	<g>
		<path fill="#EFB98F" d="M211.4,154.8c-2.9,24.8-11.8,56.9-36.5,66.6c-33.5,8.4-46.2-0.3-56.8-8.6c-6.2-4.9-11.5-9.9-12.8-13.2
			c-1.9-5.1-2.7-85-2.7-85l-1.1,0.1c-0.2-3.3-0.4-6.5-0.5-9.5c23.8-169.6,116.3-43.6,113.1-19.8c-2.8,20.4,3.2,30.3,3.2,30.3
			c-0.2,1.1-0.4,2.3-0.5,3.4c-0.3,1.6-0.5,3.1-0.8,4.7c-0.9,5.8-1.9,11.9-2.9,18.3c-0.1,0.6-0.2,1.3-0.3,1.9
			C212.3,147.6,211.8,151.2,211.4,154.8z"/>
		<path fill="#D6A680" d="M214.1,85.4c1.3-9-11.3-32.8-28.7-49.5c-2.5,20.3,6.4,54.3-31.5,66.5c-2.2,30.3-3.6,45.7-4.4,76
			c23.9-3.1,28.6,17.1,23.5,37.5c-0.9,2.3-1.9,4.4-2.9,6.6c1.6-0.3,3.1-0.6,4.8-1.1c24.8-9.8,33.7-41.8,36.5-66.6
			c0.4-3.6,0.9-7.2,1.4-10.8c0.1-0.6,0.2-1.3,0.3-1.9c1-6.4,2-12.5,2.9-18.3c0.3-1.6,0.5-3.2,0.8-4.7c0.2-1.2,0.4-2.3,0.5-3.4
			C217.3,115.7,211.3,105.8,214.1,85.4z"/>
		<path fill="#F2EAE4" d="M213.1,117.8c-0.5,0.1-1.2-0.1-2.2-0.5c-6.5-2.8-14.4-2.9-24-0.1c-9.6,2.7-10.4,4.7-12.4,3.8
			c-1.6-0.7-4.1-2.8-5.6-5c-3.2,3.4-4.3,7.6-0.6,10.5c13.8,11.7,29.8,13.1,45.8,9.2c0.6-4.1,1.3-8,1.9-11.8c0.1-0.4,0.1-0.7,0.2-1.1
			C215.3,121,214.3,119.3,213.1,117.8z M190.7,134.4c-3.9,0.5-8.1-2.1-6.5-9.1v0c3.3-0.7,7.3-0.6,11.4,1.3
			C196.1,130.2,194.6,133.9,190.7,134.4z"/>
		<path fill="#EFB98F" d="M174.9,221.4c1-0.3,2.1-0.6,3.1-0.9c1-2.4,1.9-4.8,2.9-7.3C179.2,216.3,177.1,219,174.9,221.4z"/>
		<path fill="#F2EAE4" d="M140.6,123.8c2.6-1.2,3.5-5.2,2-8.8c-1.4,1.6-3.3,3-4.6,3.5c-1.8,0.7-2.5-0.9-11.1-3.3
			c-8.6-2.4-15.7-2.4-21.6-0.1c-1.9,0.7-2.7,0.5-2.7-0.3l-1.1,0.1c0,0.5,0.1,1.1,0.1,1.6c0.1,2.2,0.3,4.4,0.4,6.7
			c0.3,3.8,0.6,7.8,1,11.8C116.9,135.4,130.2,133.4,140.6,123.8z M118.3,122.1L118.3,122.1c3.5-1.2,6.5-1.3,9.2-0.9
			c3.4,3.5,2.1,9.8-2.9,10.4C119.7,132.2,116.9,128.8,118.3,122.1z"/>
		<path fill="#D89C73" d="M144.6,144.4c-0.7,8.9-1.3,12.7-0.8,14.4C141.1,152.4,138.8,149.3,144.6,144.4z"/>
		<g>
			<path fill="#BA7D54" d="M165.9,158.3c2.2,4.8-3.4,9-10.6,13.5c-0.1,0-0.1,0-0.2,0c1.3-2.3,1-8,1-20.4
				c-0.1-20.1,3.4-47.7-0.3-51.3c9.8,7.6,4.7,52.2,4.7,52.2S163.7,153.4,165.9,158.3z"/>
			<path fill="#FFCBA3" d="M155.2,171.8c0,0.1-0.1,0.1-0.1,0.2h0c-0.9,1.3-2.5,1.2-5.2,0.6c-3.1-0.8-4.4-0.4-4.9-2.4v0
				c-0.5-2.1,0-6.6,0.5-17.2c0.1-2.8,0.3-5.9,0.4-9.6c0.5-11.7,1.1-21.2,2-28.3c1.6-11.9,3.9-17.2,7.6-15.2c0.1,0.1,0.2,0.1,0.3,0.2
				c3.7,3.6,0.1,31.2,0.3,51.3C156.2,163.7,156.5,169.5,155.2,171.8z"/>
			<path fill="#EBDFD5" d="M145.5,152.9c-0.6,10.6-1,15.1-0.5,17.2C142.1,162.4,139.8,158.6,145.5,152.9z"/>
		</g>
		<path fill="#272321" d="M150.3,195.1l0.9,0.3c-0.3,1.6-0.6,3.1-0.7,4.7c0.3-1.5,0.7-3.1,1.2-4.5l0.1,0c0.2,3,1,6,2.4,8.8
			c0,0.5,0,1,0,1.4c0.1-0.4,0.1-0.8,0.2-1.2c0.7,1.4,1.6,2.8,2.5,4c4.6,6,11.7,9.3,18.3,8.8c-1.2,2.2-2.5,4.4-4.2,6.4
			c2.1-1.9,3.9-4.2,5.5-6.5c1.6-0.3,3.1-0.7,4.5-1.4c-1.1,2.1-2.6,4.4-4.3,6.6c-5,6.5-12.4,12.8-21.8,15.2c2.3-1.4,4.5-2.8,6.6-4.4
			c2.9-2.1,5.7-4.4,8-7.1c-2.6,2.5-5.5,4.5-8.5,6.3c-3,1.8-6.2,3.5-9.4,5c-0.7,0.3-1.5,0.6-2.2,1c-1.2,0.1-2.4,0.1-3.6,0
			c2.3-1.9,4.3-4,6.1-6.4c-2.2,2.3-4.8,4.2-7.4,5.9c-1.6-0.9-5.2-3.3-9.4-6.8c-4.5-5.1-8.5-10.7-11.8-16.8c1.9,4.1,4.1,8.1,6.7,11.9
			c-3.7-3.8-7.3-8.5-9.8-13.9c-1.3-2.9-2.4-6-2.9-9.3C127.9,211.1,145.7,208.7,150.3,195.1z"/>
		<g>
			<path fill="#E3A87B" d="M117.7,119.3L117.7,119.3c-2,7.8,1.1,11.9,6.9,11.4c5.8-0.4,7.6-7.7,3.8-11.9
				C125.3,118.1,121.8,118.1,117.7,119.3z"/>
			<path fill="#CF9363" d="M113.1,130.1c1.7,0.6,3.4,1.1,5.1,1.4c1.7,0.3,3.5,0.5,5.3,0.4c3.5,0,7-0.9,10.1-2.7l0.2,0.4
				c-0.7,2.3-2.3,3.9-4.2,5c-1.8,1.1-4,1.6-6.1,1.7c-2.1,0-4.1-0.4-6-1.4c-1.8-0.9-3.5-2.3-4.6-4.4L113.1,130.1z"/>
			<path fill="#FFFFFF" d="M137.1,125.4c0.3-1.8-3.1-7.1-12.7-7.6c-9.6-0.5-16.6,5.6-15.4,8.7c1.2,3.1,7,5.8,14.1,5.8
				C130.4,132.4,136.8,128.1,137.1,125.4z"/>
			<path fill="#272321" d="M128.4,118.7c3.8,4.3,2,11.5-3.8,12c-5.8,0.5-8.9-3.6-6.9-11.4l0,0C121.8,118.1,125.3,118.1,128.4,118.7z
				"/>
			<path fill="#272321" d="M136.8,122.8c-2-1.4-4.2-2.6-6.5-3.3c-2.3-0.7-4.8-1-7.2-0.8c-4.9,0.3-9.6,2.1-14,4.3l-0.1-0.2
				c1.8-1.8,4-3.2,6.3-4.3c2.3-1.1,4.9-1.8,7.6-2c2.7-0.2,5.5,0.2,7.9,1.3c2.4,1.1,4.6,2.7,6.1,4.8L136.8,122.8z"/>
			<path fill="#B88054" d="M138.5,120.4c-3.5-4.3-8.7-6.3-13.8-6.2c-5.2,0-10.3,1.8-15.5,3.8c4.3-3.5,9.7-5.9,15.5-5.9
				c2.9,0,5.8,0.7,8.3,2.1C135.5,115.6,137.5,117.8,138.5,120.4z"/>
			<path fill="#D19465" d="M140.6,129.1c-0.1,1.9-0.7,3.5-1.6,4.9c-0.4,0.7-0.9,1.3-1.5,2c-0.6,0.6-1.2,1.1-1.8,1.6
				c-1.3,0.9-2.7,1.8-4.3,2.2c-1.6,0.5-3.3,0.7-5.2,0.3l-0.1-0.3c2.7-1.3,5.3-2.9,7.6-4.8c2.4-1.8,4.6-3.9,6.5-6.1L140.6,129.1z"/>
			<path d="M121.4,120.9c-1,2.7,0.8,4.4,2.4,4.3c1.6-0.1,4-2.8,2.9-4C125.6,119.9,122.2,118.8,121.4,120.9z"/>
			<path fill="#FFFFFF" d="M122,121.1c-1.3,0.3-1.6,1.4-1.1,2.1c0.5,0.6,2.2,0.9,2.4,0.1C123.5,122.5,123.1,120.8,122,121.1z"/>
		</g>
		<g>
			<path fill="#D9A073" d="M177.3,131.2c1.4,0.7,2.9,1.2,4.4,1.6c1.5,0.3,3.1,0.5,4.7,0.5c3.1,0.2,6.3-0.3,9.4-0.9l0.1,0.4
				c-1.2,2-2.7,3.1-4.4,3.9c-1.7,0.8-3.5,1.1-5.3,1.1c-1.8-0.1-3.7-0.6-5.4-1.6c-1.6-1-3.2-2.4-3.8-4.7L177.3,131.2z"/>
			<path fill="#FFFFFF" d="M173.4,127.2c0.1,2.1,3.6,6,12.3,6.5c8.7,0.5,14.7-3.2,15.5-6.2c0.8-3-2.9-7.6-12.6-7.9
				C178.8,119.2,173.2,124.8,173.4,127.2z"/>
			<path fill="#272321" d="M192.5,120.6c1.7,4.1,1,8.9-3.5,10.7c-4.6,1.8-10.2-0.1-10.5-8.9v0C182.2,120.6,187,119.5,192.5,120.6z"
				/>
			<path fill="#272321" d="M172.8,126.4c1.3-2.5,3.6-4.5,6.1-5.9c2.5-1.4,5.5-2.2,8.4-2.3c2.9-0.1,5.9,0.5,8.5,1.7
				c2.6,1.2,5,2.8,6.8,5l-0.1,0.2c-4.5-3-9.8-4.8-15.2-4.6c-5.3,0.1-10.7,2.3-14.5,6.1L172.8,126.4z"/>
			<path fill="#CF905E" d="M172.2,123.2c1.1-2.5,2.8-4.8,5.2-6.4c2.4-1.6,5.3-2.3,8.1-2.4c2.8-0.1,5.6,0.4,8.2,1.2
				c2.6,0.8,5.1,1.9,7.5,3.3c-2.7-0.5-5.3-1.1-7.9-1.6c-2.6-0.4-5.2-0.8-7.7-0.7c-2.5,0-5,0.6-7.3,1.7
				C176,119.5,174.1,121.3,172.2,123.2z"/>
			<path fill="#E0A475" d="M165.4,129.6c1.1,1.3,2.3,2.4,3.6,3.5c1.3,1.1,2.7,2,4.1,2.9c2.9,1.8,6.1,2.9,9.3,3.7l-0.1,0.3
				c-1.9,0.9-3.8,1-5.7,0.7c-1.9-0.2-3.6-0.9-5.3-1.8c-1.6-1-3.1-2.2-4.2-3.7c-1.1-1.5-2-3.3-2.1-5.4L165.4,129.6z"/>
			<path d="M183.2,123.3c-0.2,2.8,1.9,3.9,3.4,3.3c1.5-0.6,3-3.7,1.6-4.5C186.8,121.3,183.3,121.1,183.2,123.3z"/>
			<path fill="#FFFFFF" d="M181.8,124.6c-0.1,1.6,1.1,2.2,1.9,1.8c0.8-0.3,1.7-2.1,0.9-2.5C183.8,123.4,181.8,123.3,181.8,124.6z"/>
		</g>
		<path fill="#272321" d="M143.2,114.8c-0.3-0.2-0.7-0.6-1.2-0.9c-2.4,0.9-4.7,1.8-7.1,2.9c2-1.2,4-2.3,6.1-3.4
			c-3.9-2.3-11.6-5.9-18.4-7.8c-4.7,0.7-9.4,1.8-13.9,3.5c3.9-1.7,7.9-3,12.1-4c-3.2-0.8-6.2-1.1-8.2-0.7c-5.2,1.2-9.6,4.3-10.1,5.8
			c-0.2,0.7,0.5,1.2,2.5,0.8c1.3-0.2,2.6-0.3,3.9-0.2c0.9-0.4,1.8-0.8,2.8-1.1c3.4-1.2,7-2,10.6-2.5c-3.5,0.8-7,1.9-10.2,3.4
			c-0.3,0.1-0.5,0.3-0.8,0.4c4.6,0.5,9.5,2.1,14.8,4.9c7.9,4.2,8.2,5.9,10.1,5.7c2.1-0.3,6.3-2.4,7.3-4.5
			C143.9,116.2,143.9,115.5,143.2,114.8z"/>
		<path fill="#272321" d="M202.8,104.4c-1.4-0.4-3.3-0.3-5.4-0.1c2.6,1,5.1,2.2,7.5,3.6c-2.7-1.3-5.4-2.2-8.3-2.9
			c-0.5-0.1-1-0.2-1.5-0.3c-9.1,1.9-21.3,8-25.3,10.8c3.2,1.6,6.4,3.2,9.6,4.8c-3.5-1.3-7-2.7-10.5-4c0,0-0.1,0.1-0.1,0.1
			c-2.9,3,4.8,7.6,7.9,8.1c2.1,0.4,2.4-1.7,11.1-6.6c6.4-3.6,12.3-5.5,17.7-5.7c-1.2-0.6-2.4-1.2-3.6-1.7c-3.4-1.5-7.1-2.6-10.7-3.5
			c3.7,0.6,7.4,1.4,11.1,2.6c1.8,0.6,3.6,1.3,5.3,2.1c0.3,0.2,0.7,0.3,1,0.5c0.9,0.1,1.8,0.2,2.6,0.3
			C218.2,113.8,211.3,106.6,202.8,104.4z"/>
	</g>
	<path fill="#272321" d="M154.4,50.8l-7.2-35C95.9,30.3,71.9,68.6,63.7,287.1l3.9,0.1c-1-9.9-0.1-19.9,4.4-30.5
		c-1.8,10.1-1.8,20.5-0.2,30.6l29.2,0.6c-1.1-7.9-1-16,0.6-24.2c1.6,8.2,3.8,16.5,6.9,24.3l7.5,0.1
		C115.9,288.1,83.1,76.5,154.4,50.8z"/>
	<path fill="#5E5550" d="M151.7,38l-4.6-22.1C95.9,30.3,71.9,68.6,63.7,287.1l3.9,0.1c-1-9.9-0.1-19.9,4.4-30.5
		c-1.8,10.1-1.8,20.5-0.2,30.6l12.2,0.2c-7.3-82.7,1.1-167.8,37.8-241.1C134.5,46.6,144.2,43.5,151.7,38z"/>
	<path fill="#272321" d="M226.6,81.3C214.1,23,175.3,2.7,147.1,15.9c0,0,11,11.8,16.2,37.1c0,0,61.2,20.8,27.9,234.9l6.3-0.4
		c2.2-2.7,9.3-18.2,12.7-32.1c0,13.7-0.1,19.1-1.6,31.5l17.8,1c0.7-10.3,0-23,0-23c3.9,10.5,4.5,20.8,4.5,20.8l0.5,0
		C231.3,285.6,239.1,139.6,226.6,81.3z"/>
	<g>
		<path fill="#5E5550" d="M226.6,81.3c-0.7-3.3-1.5-6.5-2.4-9.5c-4.4-11.4-10.2-22-18-31.2c-11.9-13.9-35.5-21.8-50.3-10.5
			c2.7,5.8,5.4,13.4,7.4,22.8c0,0,1.4,0.3,3.6,1.4c17.4-23.3,59.4,2.5,66.4,113.2c0-0.2,0.1-0.4,0.1-0.6
			C232.9,134,231,101.9,226.6,81.3z"/>
		<path fill="#5E5550" d="M180.1,15c-11.2-4.2-22.7-3.9-32.9,0.9c0,0,1.7,1.8,4,5.4C159.4,15.8,169.8,13.7,180.1,15z"/>
	</g>
	<g>
		<g>
			<path fill="#BA7D54" d="M180.8,173.2c0.3,2-0.4,3.8-2.5,4.5c-2.1,0.7-4.9,0.9-7.5,0.9c-5.4,0.1-10.7-0.4-16.4-0.9
				c-5.6-0.4-11.4-1.2-16.1-1.2c-2.4-0.1-3.8-0.1-5-0.7c-1.4-0.7-2.5-2.5-3.7-4.5l-1,0c-1.4,2-2.6,4.3-1.3,7
				c0.6,1.4,2.2,2.6,3.9,3.4c1.7,0.8,3.4,1.1,5,1.5c6.4,1.1,12,0.1,17.6-0.1c5.5-0.3,11.5-0.3,17.4-1.2c2.9-0.5,6-1.1,8.8-2.6
				c1.4-0.8,2.4-2,2.5-3.2c0.1-1.2-0.3-2.2-0.7-3.1L180.8,173.2z"/>
		</g>
		<g>
			<path fill="#D69B72" d="M168.6,186.2c-5,0.5-10.1,0.7-15.1,0.5c-5,0-10-0.5-14.8-1.3l-0.3,0.6c1.3,2.8,3.6,4.4,6.2,5.6
				c2.5,1.2,5.3,1.6,8.1,1.8c2.9,0,5.7-0.3,8.5-1.4c2.7-1,5.8-2.5,7.6-5.3L168.6,186.2z"/>
		</g>
	</g>
</g>
</svg>
