<?xml version="1.0" encoding="utf-8"?>
<!-- Generator: Adobe Illustrator 23.0.3, SVG Export Plug-In . SVG Version: 6.00 Build 0)  -->
<svg version="1.1" id="Layer_1" xmlns="http://www.w3.org/2000/svg" xmlns:xlink="http://www.w3.org/1999/xlink" x="0px" y="0px"
	 viewBox="0 0 300 300" style="enable-background:new 0 0 300 300;" xml:space="preserve">
<style type="text/css">
	.st0{fill:#E66F2C;}
	.st1{fill:#D39B75;}
	.st2{fill:#BF8C6A;}
	.st3{fill:#E2AD86;}
	.st4{fill:#EBB48B;}
	.st5{fill:#82584A;}
	.st6{fill:#F2BF99;}
	.st7{fill:#BD7B4F;}
	.st8{fill:#99643D;}
	.st9{fill:#875B36;}
	.st10{opacity:0.25;}
	.st11{fill:#B0774D;}
	.st12{fill:#997055;}
	.st13{opacity:0.42;fill:#CF9E7A;}
	.st14{opacity:0.11;fill:#3C736D;}
	.st15{fill:#1A3B30;}
	.st16{fill:#1F473B;}
</style>
<g>
	<g>
		<g>
			<path class="st0" d="M105.55,240.38l-0.37,0.02C105.18,240.4,121.78,221.17,105.55,240.38z"/>
			<g>
				<g>
					<path class="st1" d="M207.2,105.95c-2.42-0.18-5.23,0.43-8.21,1.75h-0.04c-0.1,23.42-2.5,44.41-3.08,48.39
						c-0.27,1.49-0.8,4.25-1.81,7.72c7.9-3.36,17.13-13.47,21.57-33.68C219.08,114.56,214.89,106.55,207.2,105.95z"/>
				</g>
				<g>
					<path class="st1" d="M195.47,236.99c-10.52-33.82-7.45-57.16-7.45-57.16c-4.88,10.03-12.38,20.43-23.38,25.52
						c-15.42,7.06-42.99,10.35-58.96,9.49c-0.52,13.8-2.27,28.58-2.69,28.55c0.06,0.01,0.01,6.23,1.28,14.76
						c25.72,18.6,60.75,13.01,90.77,1.1C196.7,246.92,195.47,236.99,195.47,236.99z"/>
				</g>
				<g>
					<path class="st2" d="M105.67,214.84c15.97,0.86,43.54-2.43,58.96-9.49c11-5.1,18.5-15.49,23.38-25.52c0,0-0.16,1.31-0.29,3.71
						c-19.79,31.01-50.7,46.16-83.58,52.19C104.15,235.73,105.36,223.09,105.67,214.84z"/>
				</g>
				<path class="st3" d="M198.95,107.7c0.03-6.95-0.15-14.1-0.64-21.07c-1.22-17.18-7.23-33.72-17.36-47.65
					c-2.85-3.92-5.44-7.13-7.52-9.57c-3.17-3.71-6.71-7.1-10.84-9.71c-26.28-16.64-59.77-7.27-75.85,37.63
					c-2.28,6.37-3.28,13.14-3.07,19.9c0.54,17.63,2.05,58.38,5.28,95.39c1.2,13.83,2.65,27.14,4.37,38.53
					c0.33,2.13,5.19,3.31,12.36,3.7c15.97,0.86,43.54-2.43,58.96-9.49c7.51-3.47,13.34-9.42,17.85-16.01
					c2.12-3.09,3.97-6.31,5.53-9.51c2.83-5.83,4.79-11.55,6.04-16.02c1.01-3.47,1.54-6.23,1.81-7.72
					C196.45,152.11,198.85,131.12,198.95,107.7z"/>
				<path class="st4" d="M116.82,172.34c11.82-2.76,22.16,11.56,24.88,20.56c1.47,6.52,1.34,13,0.09,19.08
					c8.54-1.59,16.66-3.81,22.84-6.63c7.51-3.47,13.34-9.42,17.85-16.01c2.12-3.09,3.97-6.31,5.53-9.51
					c2.83-5.83,4.79-11.55,6.04-16.02c1.01-3.47,1.54-6.23,1.81-7.72c0.54-3.7,2.67-22.22,3.03-43.68
					c-22.38-14.67-47.95-25.11-77.9-29.57C119.48,112.6,118.75,142.6,116.82,172.34z"/>
			</g>
			<g>
				<path class="st5" d="M182.71,102.84c-4.72-6.65-33.27-33.23-36.24-27.67c-2.96,5.58-1.69,15.9,1.16,16.92
					C150.52,93.1,188.52,111.05,182.71,102.84z"/>
			</g>
			<g>
				<path class="st5" d="M111.41,77.61c5.5,5.27,7.3,11.43,0.45,13.81c-11.45,3.95-30.08,9.61-31.48,5.34
					C78.97,92.49,107.81,74.17,111.41,77.61z"/>
			</g>
			<g>
				<path class="st6" d="M112.12,152.79c-2.22-0.95-2.32-2.42-2.56-5.56c-0.41-5.95,9.24-46.3,10.64-56.37
					c0.91-6.53,1.88-9,2.89-8.57c-0.14,23.6-1.24,46.85-3.56,69.73C117.07,152.2,114.59,152.43,112.12,152.79z"/>
			</g>
			<g>
				<path class="st7" d="M123.09,82.29c2.91,1.27,6.41,26.48,11.28,50.19c2.18,10.48,2.72,16.35,2.02,19.57
					c-5.58-0.44-11.22-0.46-16.86-0.03C121.85,129.14,122.95,105.89,123.09,82.29z"/>
			</g>
			<g>
				<path class="st8" d="M136.39,152.05c-1.15,5.2-5.57,3.41-11.74,2.75c-6.91-0.77-10.56-1.18-12.52-2.01
					C120.24,151.63,128.37,151.4,136.39,152.05z"/>
			</g>
			<g>
				<path class="st9" d="M132.7,183.31c-3.42,0.4-6.93,0.45-10.37,0.11c-3.46-0.16-6.87-0.79-10.23-1.64l-0.21,0.62
					c0.94,2.82,2.56,4.5,4.34,5.67c1.74,1.25,3.67,1.74,5.62,2c1.96,0.04,3.94-0.15,5.86-1.11c1.85-0.88,3.92-2.31,5.14-5.01
					L132.7,183.31z"/>
			</g>
			<g>
				<path class="st9" d="M164.91,109.9c-1.49,1.76-3.06,3.31-4.9,4.45c-1.74,1.17-3.72,1.98-5.46,2.01c-1.9,0-2.56-1.01-3.65-1.75
					c-1.22-0.92-2.35-2.68-4.05-4.73l-0.54,0.05c-1.18,2.44-1.24,5.3,0.41,8.01c0.84,1.31,2.32,2.42,3.96,2.81
					c1.63,0.36,3.23,0.2,4.6-0.18c2.79-0.77,4.82-2.43,6.51-4.22c1.59-1.88,2.84-3.98,3.6-6.18L164.91,109.9z"/>
			</g>
			<g>
				<path class="st9" d="M104.09,111.37c-1.82,1.26-2.99,2.52-4.14,3.46c-1.17,0.88-1.64,1.91-2.91,2.07
					c-1.22,0.2-2.86-0.4-4.31-1.29c-1.53-0.85-2.98-1.97-4.37-3.18L88,112.72c0.95,1.6,2,3.18,3.34,4.64
					c1.39,1.35,3.07,2.74,5.56,3.12c2.51,0.42,5.39-0.85,6.49-2.81c1.18-1.9,1.58-3.98,1.13-6.12L104.09,111.37z"/>
			</g>
			<g class="st10">
				<path class="st11" d="M126.79,223.12c-2.59,2.56-3.53,5.9-3.37,9.28c0,1.75,0.59,3.41,1.21,5.09c0.77,1.63,1.86,3.13,3.1,4.49
					c2.68,2.55,6.1,4.17,9.46,4.31c3.34,0.23,6.55-0.6,9.31-2.86l0.03-0.68c-5.15-0.44-10.52-1.75-14.07-5.48
					c-3.71-3.55-5.09-8.97-5.02-14.09L126.79,223.12z"/>
			</g>
			<g>
				<path class="st12" d="M198.85,114.54c14.29-5.96,12.52,23.4-1.94,32.37L198.85,114.54z"/>
			</g>
			<path class="st13" d="M177.28,142.51c-1.23,5.98-4.71,11.31-8.95,15.59c-4.17,4.43-9.4,7.82-14.96,10.33l0.18,0.43
				c3.45,0.18,6.72-0.61,9.76-1.95c3.06-1.32,5.79-3.31,8.22-5.69c2.3-2.46,4.28-5.29,5.47-8.53c1.15-3.17,1.73-6.71,0.72-10.11
				L177.28,142.51z"/>
			<path class="st13" d="M99.98,164.01c-3.44-1.98-6.17-5.06-8.19-8.44c-2.11-3.33-3.53-7.14-4.29-11.05l-0.33,0.06
				c-1.47,4.37-0.46,8.94,1.78,12.74c2.34,3.69,6.12,6.93,10.88,7.01L99.98,164.01z"/>
			<g>
				<path class="st9" d="M140.81,167.53c0.24,1.98-0.19,3.76-1.64,4.34c-1.43,0.66-3.32,0.73-5.13,0.69
					c-3.73-0.03-7.41-0.74-11.35-1.31c-3.86-0.56-7.83-1.49-11.09-1.61c-1.68-0.14-2.61-0.22-3.46-0.78
					c-0.98-0.7-1.79-2.59-2.63-4.52l-0.67-0.03c-0.97,1.93-1.71,4.12-0.79,6.88c0.45,1.38,1.58,2.61,2.74,3.41
					c1.16,0.81,2.34,1.23,3.43,1.6c4.41,1.29,8.26,0.39,12.14,0.39c3.8-0.11,7.89-0.01,11.93-0.69c2.01-0.43,4.13-0.87,6.02-2.33
					c0.94-0.72,1.63-1.92,1.69-3.08c0.08-1.15-0.23-2.16-0.54-3.09L140.81,167.53z"/>
			</g>
		</g>
		<g>
			<path class="st14" d="M112.02,112.14c-0.01-0.57,0.04-1.09,0.14-1.57c-0.06-9.33-11.31-18.03-25.1-17.72
				c-8.48,7.61-12.54,19.47-7.17,28c3.71,5.24,7.73,9.66,12.02,13.33C100.95,133.17,110.01,126.75,112.02,112.14z"/>
			<path class="st14" d="M179.69,109.73c-0.54-4.88-3.44-9.35-10.07-12.28c-3.66-1.6-7.33-2.45-10.88-2.71
				c-16.64,4.33-19.43,32.78,7.94,38.38c0.04-0.03,0.12-0.06,0.17-0.1C173.73,128.67,180.62,118.57,179.69,109.73z"/>
			<g>
				<path class="st15" d="M88.62,137.05L88.62,137.05c-4.9-0.13-9.58-1.61-13.19-4.2c-2-1.45-3.96-3.32-5.67-5.4
					c-5.36-6.59-8-14.43-7.02-20.98c0.71-4.73,3.29-8.73,7.48-11.54c1.45-0.97,3.11-1.81,4.94-2.51c4.39-1.67,8.96-2.45,13.53-2.33
					c14.14,0.37,26.13,9.73,26.17,20.46c-0.01,0.69-0.06,1.29-0.15,1.93C112.17,131.06,99.06,137.32,88.62,137.05z M88.55,95.54
					c-3.86-0.1-7.71,0.56-11.45,1.98c-1.44,0.53-2.73,1.18-3.84,1.93c-2.92,1.96-4.64,4.59-5.13,7.81
					c-0.74,4.99,1.5,11.39,5.86,16.73c1.41,1.73,2.99,3.25,4.6,4.42c2.7,1.92,6.4,3.09,10.17,3.19c8.58,0.23,18.5-4.87,20.55-19.84
					c0.06-0.42,0.09-0.84,0.1-1.27C109.4,102.86,99.64,95.84,88.55,95.54z"/>
			</g>
			<g>
				<path class="st15" d="M154.92,138.81c-10.43-0.28-23.19-7.23-24.73-25.89c-0.36-4.41,1.36-8.87,4.85-12.56
					c5.22-5.52,13.56-8.68,22.3-8.44c4.58,0.12,9.08,1.14,13.39,3.05c8.77,3.88,11.18,10.02,11.66,14.49
					c1.06,9.95-6.33,20.97-14.08,25.87C164.6,137.71,159.84,138.94,154.92,138.81z M157.19,97.37c-7.11-0.19-14.08,2.39-18.19,6.75
					c-1.72,1.8-3.68,4.71-3.38,8.34c1.25,15.06,10.87,20.68,19.44,20.91c3.79,0.1,7.55-0.87,10.33-2.64
					c6.22-3.94,12.37-13.2,11.57-20.69c-0.47-4.43-3.3-7.82-8.44-10.08C164.87,98.35,161.06,97.47,157.19,97.37z"/>
			</g>
			<g>
				<path class="st16" d="M132.84,115.42c-1.1-0.03-2.1-0.71-2.5-1.79c-1.57-4.28-7.43-7.09-11.47-6.63
					c-2.41,0.27-3.73,1.55-4.03,3.9c-0.09,0.48-0.12,0.81-0.1,1.18c0.03,1.51-1.17,2.75-2.67,2.79c-1.52-0.03-2.74-1.17-2.77-2.67
					c-0.03-0.78,0.04-1.48,0.18-2.16c0.58-4.66,3.87-7.89,8.77-8.45c6.24-0.72,14.65,3.2,17.2,10.17c0.52,1.42-0.21,2.98-1.6,3.5
					C133.51,115.37,133.17,115.43,132.84,115.42z"/>
			</g>
		</g>
		<path class="st1" d="M194.44,284.78c15.11-8.63,28.1-19.85,38.67-32.78c-14.29-5.18-28.7-9.49-37.64-15.01
			c-48.17,31.81-76.9,13.57-92.48,6.4c-0.94,10.76-11.37,16.84-24.07,21.68C104.63,300.37,159.26,302.38,194.44,284.78z"/>
	</g>
</g>
</svg>
