<?xml version="1.0" encoding="utf-8"?>
<!-- Generator: Adobe Illustrator 23.0.3, SVG Export Plug-In . SVG Version: 6.00 Build 0)  -->
<svg version="1.1" id="Layer_1" xmlns="http://www.w3.org/2000/svg" xmlns:xlink="http://www.w3.org/1999/xlink" x="0px" y="0px"
	 viewBox="0 0 300 300" style="enable-background:new 0 0 300 300;" xml:space="preserve">
<style type="text/css">
	.st0{fill:#EFA878;}
	.st1{opacity:0.07;fill:#170C05;}
	.st2{fill:#F7BC94;}
	.st3{fill:#BA7A4E;}
	.st4{opacity:0.44;fill:#BA7A4E;}
	.st5{fill:#5B480C;}
	.st6{fill:#632A00;}
	.st7{fill:#843A08;}
	.st8{fill:#9E521E;}
	.st9{opacity:0.25;}
	.st10{fill:#915830;}
	.st11{fill:#FFC09C;}
	.st12{fill:#5C351B;}
</style>
<g>
	<g>
		<path class="st0" d="M136.33,251.02c-7.35,22.95-10.98,26.61-10.98,26.61c36.78,24.22,74.05-4.16,74.05-4.16
			c17.67-47.26,22.59-77.75,22.88-79.93c-1.22,2.78-20.7,47.43-54.57,54.83C157.51,250.64,146.58,251.4,136.33,251.02z"/>
		<path class="st1" d="M132.05,263.39c1.25-3.33,2.66-7.38,4.27-12.38c10.26,0.39,21.19-0.37,31.38-2.65
			c33.87-7.4,53.35-52.05,54.57-54.83c-0.09,0.67-0.62,3.99-1.79,9.55C205.18,246.99,172.32,262.05,132.05,263.39z"/>
		<path class="st2" d="M222.3,193.41c0,0,0,0.05-0.03,0.12c-0.58,1.31-5.26,11.93-13.53,23.56c11.25-20.12,18.88-41.98,21.18-65.83
			C254.65,135.36,260.08,191.28,222.3,193.41z"/>
		<path class="st3" d="M91.88,231.53c2.59-15.01,10.14-22.89,10.14-22.89s-3.86-15.87-5.68-42.46c46.29,28.74,112.23-2.4,112.23-2.4
			h0.04c-4.38,11.31,14.18,4.96,20.49-11.99c0.28-0.2,0.55-0.33,0.82-0.52c-2.31,23.85-9.93,45.7-21.18,65.83
			c-9.28,13.04-23.12,27.36-41.04,31.27c-10.19,2.27-21.12,3.03-31.38,2.65C111.3,250.04,90.07,242.16,91.88,231.53z"/>
		<path class="st1" d="M91.88,231.53c2.59-15.01,10.14-22.89,10.14-22.89s-3.86-15.87-5.68-42.46c2.89,1.8,5.86,3.36,8.89,4.71
			c2.68,12.81,5.23,37.57,5.23,37.57s-14.72,20.57,15.99,27.98c24.28,5.86,48.09,4.3,70.2-5c-7.94,7.83-17.62,14.46-28.94,16.93
			c-10.19,2.27-21.12,3.03-31.38,2.65C111.3,250.04,90.07,242.16,91.88,231.53z"/>
		<path class="st2" d="M197.11,136.45c-1.75,4.68-38.09-9.27-52.1-10.22c0,0-3.42-13.89,0.91-13.16
			C171.62,117.37,198.91,131.78,197.11,136.45z M157.94,134.96c5.07,0.72,9.54,2.15,13.19,3.69
			C166.23,151.35,155.97,159.94,157.94,134.96z M112,130.87c-1.04,13.28-5.7,22.36-9.14,1.63
			C105.62,131.09,109.16,130.81,112,130.87z M95.56,126.45c-0.45,14.93-0.05,28.34,0.78,39.73c46.29,28.74,112.23-2.4,112.23-2.4
			h0.04c0.44-1.16,1.14-2.52,2.11-4.09c9.36-14.79,6.63-32.51,5.9-36.32c-0.04-0.04-0.04-0.13-0.04-0.18
			c-4.67-18.8-8.22-43.47-6.48-48.27c-15.01,4.41-51.3,3.67-72.01-1.9c-9.48,2.97-18.32,4.25-26.44,4.3l-11.85,0.75
			c-2.06,14.24-3.28,27.71-3.9,40.23c9.68-4.3,27.49-7.82,27.49-7.82c-0.45,4.14-0.87,8.97-1.2,14.28
			C122.17,124.76,104.86,127.62,95.56,126.45z"/>
		<path class="st4" d="M99.79,78.08l11.85-0.75c8.13-0.04,16.97-1.32,26.44-4.3c20.71,5.57,57,6.31,72.01,1.9
			c-1.73,4.8,1.81,29.47,6.48,48.27c0,0.05,0,0.14,0.04,0.18c0.27,1.42,0.83,4.8,0.92,9.26c-7.47-13.8-13.19-29.56-16.18-46.7
			c-21.7,9.39-49.61,2.94-65.69-5.25c-14.34,5.32-20.93,8.79-37.72,12C98.48,87.89,99.06,83.06,99.79,78.08z"/>
		<path class="st5" d="M102.87,132.49c3.44,20.74,8.1,11.65,9.14-1.63C109.16,130.81,105.62,131.09,102.87,132.49z"/>
		<path class="st5" d="M157.94,134.96c-1.97,24.98,8.29,16.4,13.19,3.69C167.48,137.11,163.01,135.68,157.94,134.96z"/>
		<path class="st6" d="M95.88,118.3c-3.93,1.72-6.47,3.55-6.05,5.36c0.35,1.54,2.6,2.37,5.73,2.79c9.3,1.17,26.6-1.69,26.6-1.69
			c0.34-5.3,0.76-10.14,1.2-14.28C123.37,110.48,105.56,114.01,95.88,118.3z"/>
		<path class="st6" d="M145.92,113.06c-4.34-0.72-0.91,13.16-0.91,13.16c14.01,0.96,50.35,14.9,52.1,10.22
			C198.91,131.78,171.62,117.37,145.92,113.06z"/>
		<path class="st6" d="M208.61,163.78c-4.38,11.31,14.18,4.96,20.49-11.99l4.48-14.47c-3.29,5.39-6.32,8.64-8.24,7.83
			c-2.66-1.13-5.89-10.38-8.73-21.78c0.73,3.8,3.46,21.52-5.9,36.32C209.75,161.26,209.05,162.62,208.61,163.78z"/>
		<path class="st7" d="M216.57,123.2c0,0.05,0,0.14,0.04,0.18c2.84,11.4,6.07,20.64,8.73,21.78c1.92,0.81,4.94-2.44,8.24-7.83
			c8.97-14.54,20.12-44.56,18.07-51.94c-2.86-10.13-30.84-20.93-30.84-20.93c-2.91,1.07-5.7,2.02-7.9,2.74
			c2.9,2.57,3.69,4.59,1.84,5.78c-1.15,0.76-2.71,1.4-4.65,1.97C208.36,79.73,211.9,104.4,216.57,123.2z"/>
		<path class="st8" d="M142.79,32.33c30.49,12.22,60.92,26.5,70.12,34.86c2.2-0.71,4.99-1.67,7.9-2.74
			c11.68-4.31,26.35-10.95,22.27-15.93c-6.52-7.99-86.69-37.76-101.91-37.68C141.17,10.83,135.45,19.85,142.79,32.33z"/>
		<path class="st7" d="M88.39,38.77c13.83,12.79,31.21,26,40.08,30.7c2.54,1.32,5.81,2.51,9.61,3.56c20.71,5.57,57,6.31,72.01,1.9
			c1.95-0.57,3.51-1.21,4.65-1.97c1.85-1.19,1.06-3.21-1.84-5.78c-9.19-8.35-39.63-22.63-70.12-34.86
			C109.63,19,76.39,8.18,70.27,10.26C63.41,12.6,74.01,25.45,88.39,38.77z"/>
		<path class="st6" d="M88.39,38.77c-27.62-0.91-45.89-0.62-44.17,2.49c1.44,2.66,24.87,36.26,67.42,36.07
			c8.13-0.04,16.97-1.32,26.44-4.3c-3.8-1.05-7.07-2.24-9.61-3.56C119.61,64.77,102.22,51.56,88.39,38.77z"/>
	</g>
	<g class="st9">
		<path class="st10" d="M124.96,95.29c-2.11,4.2-3.59,8.56-4.97,12.93c-1.26,4.4-2.43,8.84-3.2,13.32
			c-0.92,4.49-1.44,9.01-1.88,13.56c-0.56,4.56-0.48,9.14-0.58,13.73l5.76-7.17c-3.39,0.67-5.91,1.68-8.85,3.22
			c-2.8,1.58-5.88,3.6-8.24,7.45c-1.17,1.89-1.89,4.3-1.97,6.62c-0.04,1.16,0.05,2.28,0.25,3.33l0.16,0.77l0.09,0.39l0.19,0.7
			l0.03,0.06l0.04,0.11l0.49,1.13c0.36,0.76,0.86,1.67,1.28,2.21c0.39,0.47,0.8,0.96,1.22,1.38c0.84,0.78,1.69,1.45,2.52,1.96
			c1.63,1.01,3.26,1.6,4.75,2.01c5.95,1.64,11.18,1.45,16.41,1.04c5.18-0.61,10.23-1.5,15.16-3.31l-0.05-0.81
			c-4.93,0.19-9.88,0.11-14.8-0.27c-4.89-0.4-9.85-1.04-14.38-2.74c-2.19-0.87-4.5-2.15-5.4-4.05c-0.88-2.11-0.66-4.61,0.58-6.5
			c2.59-3.87,7.58-5.73,12.11-6.88l0.63-0.16l0-0.62c-0.35-17.8,0.91-35.66,3.47-53.29L124.96,95.29z"/>
	</g>
	<path class="st11" d="M121.51,148.71c13.07,3.79,18.58,26.22-4.35,19.72C94.26,161.96,115.85,147.06,121.51,148.71z"/>
	<path class="st11" d="M125.1,95.31c-2.79,17.65-4.25,35.52-4.12,53.41l0.42-0.52c-4.82,1.19-9.91,3.12-12.87,7.54
		c-1.41,2.23-1.63,5.15-0.59,7.53c1.27,2.53,3.76,3.68,6.05,4.6c4.75,1.71,9.75,2.27,14.69,2.64c4.96,0.3,9.93,0.33,14.9,0.09
		l-0.02-0.53c-4.97-0.86-9.88-1.38-14.67-2.47c-4.73-0.79-9.57-1.86-13.36-3.74c-0.95-0.45-1.7-1.03-2.34-1.48
		c-0.31-0.24-0.52-0.48-0.7-0.68c-0.06-0.1-0.09-0.19-0.16-0.27c-0.04-0.05,0.09,0.07,0.08,0.14c-0.42-1.22-0.14-2.29,0.48-3.14
		c1.21-2.11,5.83-4.11,9.56-5.01l3.9-0.94l-0.05-3.83l-0.18-13.17l-0.06-13.24l-0.09-13.35c-0.21-4.48-0.08-8.94-0.34-13.49
		L125.1,95.31z"/>
	<path class="st12" d="M181.45,143.93c-3.77-3.96-8.43-7.01-13.46-9.39c-2.52-1.15-5.06-2.72-7.95-2.72
		c-2.85-0.04-5.79,0.43-8.48,2.3v0.66c2.59,1.94,4.93,2.89,7.29,3.77c2.31,0.93,4.9,0.66,7.39,1.18c2.5,0.46,4.98,1.12,7.44,1.96
		c2.49,0.74,4.95,1.7,7.36,2.79L181.45,143.93z"/>
	<path class="st12" d="M117.13,131.03c-2.95-1.12-6.07-1.8-9.36-1.81c-1.63,0.01-3.5-0.2-5.07,0.82c-1.52,0.91-2.96,2.56-2.96,4.6
		l0.36,0.28l4.36-0.68c1.25-0.15,2.39-1.02,3.78-1.39c2.74-0.76,5.76-1.18,8.84-1.38L117.13,131.03z"/>
	<path class="st10" d="M169.04,186.03c-8.3,4.36-17.48,6.81-26.49,7.19c-9.03,0.37-17.82-1.76-25.24-6.02l-3.82,8.29
		c9.61,3.61,20.05,4.25,29.61,2.26C152.66,195.76,161.53,191.7,169.04,186.03z"/>
	<path class="st3" d="M230.68,159.41c8.21-6.46,13.13,4.85,7.35,13.81c-5.79,8.97-11.58,4.72-11.58,4.72L230.68,159.41z"/>
</g>
</svg>
