<?xml version="1.0" encoding="utf-8"?>
<!-- Generator: Adobe Illustrator 24.0.2, SVG Export Plug-In . SVG Version: 6.00 Build 0)  -->
<svg version="1.1" id="Layer_1" xmlns="http://www.w3.org/2000/svg" xmlns:xlink="http://www.w3.org/1999/xlink" x="0px" y="0px"
	 viewBox="0 0 205 260" style="enable-background:new 0 0 205 260;" xml:space="preserve">
<style type="text/css">
	.st0{fill:#1C120E;}
	.st1{fill:#6B3E2A;}
	.st2{fill:#B87656;}
	.st3{fill:#21150F;}
	.st4{fill:#AD7459;}
	.st5{fill:#C98B69;}
	.st6{fill:#AD7356;}
	.st7{fill:#FFFFFF;}
	.st8{fill:#1F1713;}
	.st9{fill:#915B44;}
	.st10{fill:#8E2F2F;}
	.st11{fill:#855445;}
	.st12{fill:#2D4242;}
	.st13{fill:#9E6245;}
	.st14{fill:#B33939;}
	.st15{fill:#D99C71;}
	.st16{fill:#C54D4D;}
	.st17{fill:#6E2222;}
	.st18{fill:#1E1B1C;}
</style>
<g>
	<path class="st0" d="M96.1,60.2c2-28.4-14.4-39.1-35-30.3s-39.5,37.7-2.3,56.8L96.1,60.2z"/>
	<path class="st1" d="M44.1,110.7c-5.3-1.3-5.4,8.9,1.2,13.1c-0.2-2.8,0-6.1,0.4-10l0,0C45.5,113.5,44.9,112.4,44.1,110.7z"/>
	<path class="st2" d="M71.9,213.5c-0.3,0.8-0.8,1.6-1.1,2.4c10.6,24.2,62,12.8,71.3-0.1c-21.4-12.2-24.4-15.5-24.4-15.5
		c-9.2-12.6-4.8-27.3-4.8-27.3c-5.6,5.7-11.1,10.1-15.2,11.1c-7.5,1.8-19.2-8.1-29.5-19.8c0.7,1.3,10,18,10.9,32.2
		c0.1,1.8,0.1,3.6-0.1,5.3l0,0C78.2,206.7,76.2,210.9,71.9,213.5L71.9,213.5z"/>
	<path class="st0" d="M36.3,72.9c-5.1,6.9,1.9,25.1,6.3,34.7c0.5,1.2,1,2.2,1.5,3.1c0.8,1.8,1.4,2.9,1.6,3.1
		c6.2-23.2,19.5-32.4,24.4-35c-3.6-2.1-7.4-4.4-11-6.8C59,71.9,43.5,63.2,36.3,72.9z"/>
	<path class="st3" d="M36.3,72.9C43.5,63.3,59,72,59,72c1,0.6,1.9,1.2,2.9,1.8c-23-5.4-23.4,14.6-23.8,22.5
		C35,87.4,32.9,77.6,36.3,72.9z"/>
	<path class="st4" d="M42.6,107.5c-12.8-5.9-9.3,19.6,3.8,23.6l0,0c-0.7-2.2-1.1-4.6-1.2-7.4c-6.6-4.2-6.5-14.4-1.2-13.1
		C43.6,109.8,43.1,108.7,42.6,107.5z"/>
	<path class="st5" d="M81.5,151.4c2.8-2.2,6.6-4.4,8.6-3.5s5,3.5,5,3.5s4-2.8,5.4-3.4c1.3-0.6,5,0.2,8.3,3.4
		c-0.7,0.3-1.6,0.6-2.5,0.8c-5.7,6.6-12.7,9.4-22.3,0l0,0C83.1,152,82.3,151.8,81.5,151.4z M68,164.3L68,164.3
		c10.3,11.7,22,21.6,29.5,19.8c4.1-1,9.6-5.3,15.2-11.1c13-13.2,27.1-33.8,29.4-38.3c0.8-1.7,1.2-5,1.4-8.9l0,0
		c0.2-4.7-0.1-10.3-0.4-15.1l0,0c-5.9-1.8-13.1-4.1-21.1-7.1c-5.3-2-11-4.3-16.9-6.9c-11-4.8-22.9-10.7-35-17.9
		c-4.9,2.7-18.3,11.8-24.4,35l0,0c-0.4,3.9-0.5,7.1-0.4,10c0.2,2.8,0.6,5.2,1.2,7.4c0.6,2.3,1.5,4.3,2.6,6.4
		C52.6,144.5,59.9,154.9,68,164.3z"/>
	<path class="st5" d="M126.8,105.2c6.1,2.2,11.6,4,16.3,5.4l0,0c0.3,4.8,0.6,10.4,0.4,15.1l0,0c-0.1,3.9-0.5,7.2-1.4,8.9
		c-2.2,4.5-16.4,25.1-29.4,38.3c-5.6,5.7-11.1,10.1-15.2,11.1c-1.4,0.3-3,0.3-4.6-0.2C114.2,162.5,130.7,134.4,126.8,105.2z"/>
	<path class="st6" d="M45.6,113.8L45.6,113.8c3.1-11.8,8.1-20,12.9-25.5c-12.4,27.7-3.6,57.3,14.1,81c-1.6-1.6-3.1-3.3-4.6-5l0,0
		c-8.1-9.3-15.4-19.8-18.9-26.7c-1.1-2.1-2-4.2-2.6-6.4c-0.7-2.2-1.1-4.6-1.2-7.4C45.1,120.9,45.2,117.7,45.6,113.8z"/>
	<path class="st6" d="M63.2,83.6c2.8-2.5,5.3-4,6.9-4.9c12.1,7.2,24,13,35,17.9c5.9,2.6,11.6,4.9,16.9,6.9c8,3,15.2,5.4,21.1,7.1
		l0,0c0.3,4.6,0.5,9.9,0.4,14.5c-26.4-9-51.5-21.5-74-37.1c-8.6,3.9-15.5,10-21.1,17.3C52.7,94.6,58.4,87.8,63.2,83.6z"/>
	<path class="st7" d="M129.2,117.4c4.2,2.4,8.2,1.2,8.2,1.2s-3.2,7.5-8,8.5c-4.8,1-13.2-0.9-13.7-5.9
		C120.6,117.8,125,114.9,129.2,117.4z"/>
	<path class="st7" d="M69.7,115c4.8,0,9,4.7,9,4.7s-1,4.6-9.1,5c-8.7,0.5-15.3-8.9-15.3-8.9C59.4,116.2,66.5,115,69.7,115z"/>
	<path class="st8" d="M122,103.5c8,3,15.2,5.4,21.1,7.1c1.3,0.4,2.5,0.8,3.7,1.1c9.1,2.6,14.5,3.7,14.5,3.7
		c23.5-57.3-14.8-70.4-43.8-70c-7.9,0.1-15,1.1-20.2,2.6c-11,3.2-19.8,8.3-26.2,13c-7.8,5.8-12,10.9-12,10.9c3.7,2.4,7.4,4.7,11,6.8
		c12.1,7.2,24,13,35,17.9C111,99.2,116.7,101.5,122,103.5z"/>
	<path class="st3" d="M71,61c6.4-4.7,15.2-9.9,26.2-13c5.1-1.5,12.3-2.6,20.2-2.6c29.1-0.4,67.3,12.8,43.8,70l0,0
		c3.6-28.3-17.1-42.9-40.8-51.8c-22-5.5-42.7-1.2-59.8,9.2c-0.5-0.3-1.1-0.7-1.6-1C59,71.9,63.2,66.8,71,61z"/>
	<path class="st9" d="M77.8,189.2c-2.7-12.1-9.2-23.9-9.8-24.9c10.3,11.7,22,21.6,29.5,19.8c4.1-1,9.6-5.3,15.2-11.1
		c0,0-1.1,3.8-1,9.2C100.4,194.8,88.8,195.1,77.8,189.2z"/>
	<path class="st10" d="M106.3,152.2c0.9-0.2,1.7-0.5,2.5-0.8c-3.3-3.1-7-3.9-8.3-3.4c-1.4,0.6-5.4,3.4-5.4,3.4s-3-2.6-5-3.5
		s-5.8,1.3-8.6,3.5c0.8,0.3,1.6,0.6,2.4,0.8l0,0C92.9,154.7,100.8,153.7,106.3,152.2z"/>
	<path class="st1" d="M90.6,138l11.3,1c0,0-0.8-1-2.2-1.8C97.6,135.8,94,134.5,90.6,138z"/>
	<path class="st7" d="M106.3,152.2c-5.5,1.5-13.4,2.5-22.3,0C93.6,161.6,100.6,158.8,106.3,152.2z"/>
	<path class="st11" d="M78,121.7c-3.2,2.7-7.8,3.7-11.8,2.5c-4.1-1-7.5-3.7-10.3-6.8l-0.2,0.2c1.7,4.1,5.2,7.6,9.9,8.9
		c2.3,0.6,4.9,0.6,7.2-0.3c2.3-0.8,4.2-2.3,5.3-4.3L78,121.7z"/>
	<path class="st11" d="M136.9,119.4c-1.9,3.5-5,6.6-8.9,7.5s-8-0.8-11.2-3.1l-0.1,0.2c1.2,1.8,2.8,3.3,4.9,4.3c2,1,4.5,1.4,6.9,0.9
		c2.4-0.5,4.5-1.9,6-3.6s2.4-3.8,2.7-6L136.9,119.4z"/>
	<path class="st4" d="M143.1,110.6L143.1,110.6c0.3,4.9,0.6,10.5,0.4,15.2c7.5-9.9,3.3-14,3.3-14l0,0
		C145.6,111.4,144.4,111,143.1,110.6z"/>
	<path class="st8" d="M80.5,106.3c-2.1-2-4.3-3.4-6.8-4.6c-2.4-1.2-5.2-1.3-7.9-1.6c-1.4-0.2-2.8-0.3-4.2-0.2
		c-1.4,0-3.1,0.5-4.3,1.1c-2.8,1.4-4.7,3.8-5.2,6.5l0.5,0.2c1.2-2.2,3.4-3.8,5.6-4.2c1.2-0.3,2.1-0.3,3.4-0.1
		c1.1,0.2,2.4,0.5,3.5,0.8c2.4,0.7,4.6,2.1,7.2,2.5s5.3,0.8,8.2,0.1L80.5,106.3z"/>
	<path class="st12" d="M128.3,118c0,0-2.7-1.2-7.2,0.3c-1.5,4,0.2,7.6,3.6,7.6C128.2,126,131,121.4,128.3,118z"/>
	<path class="st8" d="M115.5,107.8c2.8-0.4,5.1-1,7.4-1.7c2.2-0.6,4.1-2.1,6.4-2.8c2.2-0.8,4.5-1.3,6.9-1.5c2.4-0.3,4.8-0.1,7.3,0.2
		l0.2-0.5c-2.3-1.2-4.8-1.9-7.4-2.3c-2.6-0.4-5.3-0.3-8,0c-2.6,0.4-5.4,0.7-7.7,2.2c-2.2,1.5-4.3,3.4-5.4,6.1L115.5,107.8z"/>
	<path class="st13" d="M75.8,115.7c-0.8-1.6-2-3.1-3.7-4c-1.7-1-3.8-1.2-5.7-0.9c-3.8,0.7-6.7,3-8.4,6.2l0.1,0.2
		c2.6-1.8,5.5-3.6,8.7-4.1c1.6-0.3,3.2-0.2,4.7,0.4c1.5,0.5,2.9,1.4,4.2,2.4L75.8,115.7z"/>
	<path class="st13" d="M117.7,119.7c0.5-1.6,1.4-3,2.8-3.9c1.3-0.9,3-1.3,4.6-1.2c3.3,0,6.5,1.2,9.4,2.7l0.1-0.2
		c-2.3-2.9-5.6-4.6-9.5-4.8c-1.9,0-4.1,0.6-5.7,2.1c-1.6,1.4-2.2,3.5-1.9,5.3H117.7z"/>
	<path class="st4" d="M99.9,132.9l0.6-9.3c0.3-3,0.5-6.1,0.9-9c0.7-6,2-11.7,3.7-17.9l-0.2-0.1c-3.1,5.4-5,11.5-5.8,17.7
		c-0.7,6.2-0.6,12.5,0.5,18.7L99.9,132.9z"/>
	<path class="st14" d="M109.5,151.2c0,0-2.1,15.6-13,15.6c-11.9,0-16.4-15.8-16.4-15.8l3.8,1.2c0,0,4.1,5.9,11.3,5.9
		c7.2,0,11.7-6.5,11.7-6.5L109.5,151.2z"/>
	<path class="st15" d="M99.9,132.9c-1-6.1-1.1-12.4-0.3-18.6c0.7-6.2,2.5-12.2,5.5-17.7l-0.3-0.1c-2.5,2.2-4.4,5-5.7,8
		c-1.4,3-2.2,6.2-2.6,9.4c-0.4,3.2-0.4,6.5,0.1,9.7s1.3,6.4,3,9.3H99.9z"/>
	<path class="st16" d="M106.1,152.2c-1.4,1.6-3,3.1-4.9,4.2c-1.8,1.1-4,1.7-6.1,1.6c-4.3-0.2-8.1-2.9-11.2-5.8l-0.2,0.2
		c0.8,2.3,2.2,4.2,4.1,5.8s4.4,2.7,7.2,2.9c2.8,0.1,5.6-0.9,7.5-2.6c1.9-1.7,3.2-3.7,3.8-6.1L106.1,152.2z"/>
	<path class="st15" d="M108.8,151.5c-1.8-1.9-3.9-3.6-6.8-4.2c-0.4-0.1-0.7-0.1-1.2,0c-0.2,0-0.4,0.1-0.7,0.1l-0.5,0.2
		c-0.7,0.3-1.2,0.6-1.8,0.9c-1.2,0.6-2.3,1.3-3.5,1.9l0,0l1.7,0.1c-1.1-0.8-2.2-1.6-3.4-2.3c-0.6-0.3-1.2-0.7-1.9-0.9
		c-0.7-0.3-1.8-0.4-2.4-0.2c-1.4,0.4-2.6,1.1-3.7,1.8c-1.1,0.8-2.1,1.6-3.1,2.5l0.1,0.1c2.1-1.6,4.3-3.1,6.8-3.6
		c1.3-0.3,2.4,0.6,3.5,1.3c1.1,0.8,2.1,1.6,3.1,2.4l0.1,0.1l0.1-0.1l0,0c1.1-0.7,2.1-1.5,3.2-2.2c1.1-0.6,2.2-1.6,3.5-1.4
		c2.6,0.3,4.9,1.7,6.8,3.5L108.8,151.5z"/>
	<path class="st17" d="M114,149.1c-3.2,0.9-6.4,1.4-9.5,1.9c-3.1,0.4-6.3,0.7-9.4,0.7c-6.3,0.1-12.4-1.1-18.9-2.6l-0.1,0.2
		c5.9,3,12.4,4.7,19,4.7c3.3,0,6.6-0.4,9.8-1.2c3.2-0.8,6.3-1.9,9.2-3.5L114,149.1z"/>
	<path class="st4" d="M102.2,164.9c-3.7,2.6-8.9,2.4-12.6-0.2l-0.2,0.3c0.3,1.6,1.2,2.7,2.3,3.6c1.2,0.9,2.6,1.3,4.1,1.3
		s2.9-0.3,4.1-1.2c1.2-0.8,2.2-2,2.5-3.5L102.2,164.9z"/>
	<g>
		<path class="st12" d="M65.8,115.9c0,0,2.5-1.6,7.4-0.8c2.1,3.9,1,7.8-2.5,8.4C67.3,124.1,63.6,119.8,65.8,115.9z"/>
		<path class="st0" d="M70.7,119.6c-2.3,0.6-3.6-3.9-0.5-4.1C72.1,115.4,73.8,118.7,70.7,119.6z"/>
	</g>
	<g>
		<path class="st0" d="M126.9,118.5c1.7,1.5-1.3,4.8-2.9,2.4C122.9,119.5,124.6,116.5,126.9,118.5z"/>
	</g>
	<path class="st18" d="M78.2,118.8c-1.6-1.6-3.4-3.2-5.6-4.3c-2.2-1.1-4.9-1.3-7.2-0.9c-2.4,0.3-4.6,0.7-6.6,1.1s-4,0.3-6.4,0.1
		l-0.1,0.3c1.7,1.8,4.3,2.7,6.8,2.7c2.6,0,4.7-1.2,6.8-1.7c2.1-0.6,4.2-0.7,6.2-0.1c2.1,0.6,4.1,1.7,5.9,3L78.2,118.8z"/>
	<path class="st18" d="M115.4,121.6c1.9-1,3.7-2,5.7-2.6c1.9-0.7,3.9-1,5.8-0.7s3.9,1.3,6.2,1.2c2.3,0,4.6-0.6,6.5-1.8l-0.1-0.3
		c-2.2-0.4-4.2-0.6-6.2-0.9c-1.9-0.4-4-0.6-6.3-0.6c-2.4,0-4.6,0.7-6.6,1.8c-1.9,1.1-3.6,2.4-5.2,3.8L115.4,121.6z"/>
</g>
</svg>
