<?xml version="1.0" encoding="utf-8"?>
<!-- Generator: Adobe Illustrator 23.0.3, SVG Export Plug-In . SVG Version: 6.00 Build 0)  -->
<svg version="1.1" id="Layer_1" xmlns="http://www.w3.org/2000/svg" xmlns:xlink="http://www.w3.org/1999/xlink" x="0px" y="0px"
	 viewBox="0 0 300 300" style="enable-background:new 0 0 300 300;" xml:space="preserve">
<style type="text/css">
	.st0{fill:#DE9C6D;}
	.st1{fill:#C78C62;}
	.st2{fill:#CC9A79;}
	.st3{fill:#DEA784;}
	.st4{fill:#7C3F12;}
	.st5{fill:#9C4F17;}
	.st6{fill:#5E2800;}
	.st7{fill:#6A3000;}
	.st8{fill:#421E00;}
	.st9{opacity:0.29;fill:#2B1400;}
	.st10{fill:#B5866D;}
	.st11{fill:#F9B380;}
	.st12{opacity:0.13;fill:#5E391B;}
	.st13{opacity:0.42;fill:#FFD6B5;}
	.st14{opacity:0.51;fill:#E89D66;}
	.st15{fill:#5E391B;}
	.st16{opacity:0.44;fill:#FFC59C;}
	.st17{fill:#E89D66;}
	.st18{fill:#E89254;}
	.st19{fill:#C48452;}
	.st20{fill:#85553C;}
</style>
<g>
	<path class="st0" d="M169.97,233.93l2.78,42.51c-3.47,18.89-55.62,12.69-61.68,1.82c-6.38-11.45-7.04-85.66-7.04-85.66
		L169.97,233.93z"/>
	<path class="st1" d="M169.97,233.93l2.25,34.29c-24.67-1.09-48.02-11.49-66.54-27.64c-1.42-23.16-1.64-47.98-1.64-47.98
		L169.97,233.93z"/>
	<g>
		<g>
			<g id="XMLID_12_">
				<g>
					<path class="st2" d="M215.14,216.04c-7.45-8.58-16.67-15.74-16.67-15.74c1.17-0.53,2.26-0.97,3.22-1.3L192.54,183l-0.18-1.27
						c-4.53,0.62-8.06,0.99-8.06,0.99c-24.81,2.16-87.13,30.9-39.36,65.57c44.85,12.99,77.38-2.4,79.16-13.39
						C224.97,229.33,220.56,222.32,215.14,216.04z"/>
					<path class="st2" d="M184.3,182.71c0,0,3.54-0.36,8.06-0.99l0.18,1.27l9.14,16.01c-0.16,0.07-0.34,0.14-0.5,0.19
						c-0.07-0.1-0.14-0.19-0.2-0.25c0.06,0.06,0.13,0.15,0.2,0.25c-0.84,0.31-1.74,0.66-2.72,1.11c0,0,3.22,2.5,7.4,6.3
						c4.66,10.79,1.45,22.77-8.47,31.39c-9.57,9.16-21.12,8.36-32.69,7.57c-9.11-0.27-17.92-1.25-26.49-2.82
						C103.82,210.61,160.81,184.74,184.3,182.71z"/>
					<path class="st3" d="M197.4,238c9.92-8.62,13.13-20.6,8.47-31.39c2.88,2.65,6.24,5.92,9.28,9.44
						c5.41,6.27,9.83,13.28,8.96,18.84c-1.78,10.99-34.32,26.39-79.16,13.39c-2.56-1.87-4.75-3.71-6.72-5.53
						c8.57,1.58,17.38,2.56,26.49,2.82C176.28,246.36,187.83,247.16,197.4,238z"/>
					<g>
						<path class="st4" d="M96.57,167.89c7.96,6.63,10.64,14.35,10.64,14.35l8.28,0.75c0,0-10.14-14.78-3.65-38.33
							c6.49-23.54-1.91-39.37-1.91-39.37s-9.27-3.25-22.86-3.98C62.19,102.64,71.5,135,81.9,143.82
							c10.17,8.61,12.87,22.14,12.95,22.67c0.01,0.02,0.01,0.02,0.01,0.02c0.54,0.37,1.09,0.8,1.62,1.27
							C96.54,167.82,96.56,167.86,96.57,167.89z"/>
						<path class="st5" d="M87.07,101.32c13.59,0.73,22.86,3.98,22.86,3.98s1.46,2.81,2.68,7.71c-13.46-3.04-39.81-3.14-33.36,28.04
							C70.14,129.65,64.33,102.53,87.07,101.32z"/>
						<path class="st6" d="M115.49,182.99l-8.28-0.75c0,0-2.68-7.72-10.64-14.35c-0.02-0.03-0.04-0.07-0.09-0.1
							c-0.53-0.46-1.08-0.9-1.62-1.27c0,0,0,0-0.01-0.02c-0.09-0.53-2.78-14.06-12.95-22.67c-0.19-0.15-0.35-0.34-0.54-0.49
							c10.76,6.52,20.3,14.45,28.73,23.43C111.45,177.07,115.49,182.99,115.49,182.99z"/>
						<path class="st7" d="M203.55,77.18c30.29,0.97,31.91-40.97,8.62-66.18c0,0-3.65,14.99-34.36,18.62
							c-30.69,3.67-46.83-17.83-57.82-11.55c-18.69,10.67-36.3,23.71-46.17,35.3c-9.91,11.62,13.25,47.95,13.25,47.95
							c13.59,0.73,22.86,3.98,22.86,3.98c11.39-2.39,13.48-7.88,21.4-24.44c7.92-16.58,26.24-13.87,64.17-4.8
							C198.37,76.75,201.05,77.11,203.55,77.18z"/>
						<path class="st8" d="M72.68,55.14c13.13,11.32,30.57,19.34,45.4,24.63c4,1.28,8.06,2.4,12.16,3.38
							c-7.06,14.76-9.48,19.86-20.32,22.14c0,0-9.27-3.25-22.86-3.98C87.07,101.32,66,68.27,72.68,55.14z"/>
						<path class="st9" d="M104.94,76.17c11.96-43.83,62.57-13.54,97.26-11.14c7.16-0.41,16.73-9.56,16.34-16.74
							c-1.97-9.8-6.73-19.77-13.32-28.29c5.85-4.61,6.96-9,6.96-9c23.29,25.21,21.66,67.14-8.62,66.18
							c-2.5-0.07-5.17-0.43-8.05-1.12c-37.93-9.07-56.25-11.78-64.17,4.8c-7.92,16.56-10.01,22.05-21.4,24.44
							c0,0-3.71-1.29-9.87-2.43C100.64,93.93,102.18,85.02,104.94,76.17z"/>
					</g>
					<path class="st10" d="M192.54,183l9.14,16.01c-0.96,0.33-2.05,0.77-3.22,1.3c0,0,9.22,7.16,16.67,15.74
						c0.85-8.18,1.48-17.31,1.79-26.99c0.18-4.49-4.53-9.64-15.09-8.82c-3.08,0.58-6.49,1.08-9.48,1.48L192.54,183z"/>
					<path class="st11" d="M96.57,167.89c-0.02-0.03-0.04-0.07-0.09-0.1c-0.5-0.42-1.04-0.84-1.62-1.27c0,0,0,0-0.01-0.02
						c-5.84-4.21-11.49-2.86-7.65,11.48c5.48,20.45,16.83,14.63,16.83,14.63s-0.78,37.3,13.84,44.84
						c9.37,4.82,18.47,8.34,27.06,10.84c-47.77-34.66,14.55-63.41,39.36-65.57c0,0-19.7-106.69-3-71.19
						c12.03,25.58,33.5,63.28,29.8,66c-1.29,0.99-4.98,1.89-9.26,2.71c10.56-0.82,15.27,4.33,15.09,8.82
						c1.19-35.65-1.76-79.14-13.39-111.88c-2.5-0.07-5.17-0.43-8.05-1.12c-37.93-9.07-56.25-11.78-64.17,4.8
						c-7.92,16.56-10.01,22.05-21.4,24.44c0,0,8.4,15.83,1.91,39.37c-6.49,23.55,3.65,38.33,3.65,38.33l-8.28-0.75
						C107.21,182.24,104.53,174.52,96.57,167.89z"/>
					<path class="st11" d="M94.86,166.5c0.01,0.02,0.01,0.02,0.01,0.02c0.57,0.43,1.12,0.84,1.62,1.27c0.05,0.03,0.07,0.07,0.09,0.1
						c4.88,4.04,7.76,8.51,9.26,11.36c-6.77-3.08-12.92-7.66-19.32-12.57C87.84,163.47,91.3,163.93,94.86,166.5z"/>
					<path class="st12" d="M112.38,112.12c-1.18-4.37-2.45-6.83-2.45-6.83c11.39-2.39,13.48-7.88,21.4-24.44
						c7.92-16.58,26.24-13.87,64.17-4.8c2.88,0.69,5.55,1.05,8.05,1.12c0.71,2.03,1.39,4.08,2.05,6.19
						c-16.57,4.26-31.12-2.44-46.82-5.5c-7.59,0.16-15.73,3.33-18.77,7.89c-4.41,10.21-10.95,19.83-19.86,24.12
						c1.95,4.53,3.03,9.46,3.39,14.56c-3.26,13.56-8.98,26.16-13.78,38.54c-0.29-5.25,0.16-11.4,2.08-18.32
						C115.79,130.32,114.22,118.9,112.38,112.12z"/>
					<path class="st11" d="M201.84,180.24c2.43-0.46,4.66-0.96,6.39-1.48c-0.06,0.58-0.14,1.19-0.21,1.76
						C206.25,180.19,204.2,180.05,201.84,180.24z"/>
					<path class="st13" d="M195.5,76.06c2.88,0.69,5.55,1.05,8.05,1.12c11.63,32.74,14.58,76.23,13.39,111.88
						c0.15-3.49-2.69-7.37-8.9-8.54c0.06-0.57,0.15-1.18,0.21-1.76c1.3-0.4,2.31-0.81,2.86-1.23c1.03-0.74,0.11-4.21-2.02-9.37
						c1.77-31.29-3.28-62.77-14.67-92.34C194.79,75.89,195.13,75.97,195.5,76.06z"/>
					<path class="st14" d="M124.87,149.91c-0.21-3.86,0.57-7.2,2.11-10.13c7.68,8.67,13.4,12.05,23.97,18.57
						c3.84-5.76,6.26-11.45,7.87-17.74c1.82,10.7,3.78,21.7,5.21,32.66c-1.11,0.19-2.21,0.41-3.29,0.55
						C146.39,174.62,127.25,167.05,124.87,149.91z"/>
					<path class="st11" d="M213.33,162.28c1.24-0.08,2.44-0.22,3.66-0.41c0.26,9.34,0.23,18.49-0.06,27.18
						c0.18-4.49-4.53-9.64-15.09-8.82c4.28-0.83,7.97-1.73,9.26-2.71c1.54-1.13-1.29-8.34-5.98-18.2
						C207.41,160.8,210.08,161.86,213.33,162.28z"/>
					<path class="st14" d="M215.33,146.34c0.31,0,0.58-0.03,0.9-0.04c0.34,5.23,0.63,10.44,0.77,15.57
						c-1.22,0.19-2.43,0.33-3.66,0.41c-3.25-0.42-5.92-1.48-8.21-2.96c-1.83-3.86-3.95-8.13-6.23-12.64
						c0.18-0.75,0.36-1.53,0.49-2.34c-0.13,0.81-0.32,1.59-0.49,2.34c-2.63-5.22-5.44-10.71-8.22-16.17
						C197.66,140.1,206.42,146.83,215.33,146.34z"/>
					<path class="st12" d="M119.52,100.95c4.14-3.62,6.82-9.66,11.81-20.09c7.92-16.58,26.24-13.87,64.17-4.8
						c2.88,0.69,5.55,1.05,8.05,1.12c4.17,11.74,7.2,24.87,9.36,38.52c-9.8-3.16-20.19-3.28-30.74-2.38c-0.3-0.6-0.59-1.21-0.87-1.8
						c-5.56-11.8-7.07-7.89-6.64,2.6c-13.11,1.56-26.27,4.01-38.64,3.51C125.97,116.94,121.07,110.5,119.52,100.95z"/>
					<path class="st15" d="M110.68,149.68c0.99,0.99,2.08,1.94,3.21,2.87c-1.06,7.5-1.67,15.14-1.84,22.82
						C110.15,169.59,108.59,160.8,110.68,149.68z"/>
					<path class="st16" d="M112.58,165c0.32-4.19,0.74-8.35,1.31-12.45c10.45,8.31,33.55,14.69,41.86,24.32
						c6.2,7.2-18.06,10.39-28.57,16C121.96,184.06,115.98,174.9,112.58,165z"/>
					<path class="st17" d="M181.3,111.52c-16.69-35.5,3,71.19,3,71.19s3.54-0.36,8.06-0.99c2.99-0.41,6.39-0.91,9.48-1.48
						c4.28-0.83,7.97-1.73,9.26-2.71C214.8,174.8,193.33,137.1,181.3,111.52z"/>
					<path class="st18" d="M211.1,177.53c-1.29,0.99-4.98,1.89-9.26,2.71c-3.08,0.58-6.49,1.08-9.48,1.48
						c-4.53,0.62-8.06,0.99-8.06,0.99s-0.31-1.71-0.83-4.63c8.5-3.93,17.87-5.67,27.64-4.24
						C211.65,175.81,211.67,177.11,211.1,177.53z"/>
				</g>
			</g>
			<path class="st7" d="M159.88,111.68c-2.59-0.48-4.96-0.45-7.26-0.25c-2.3,0.18-4.5,0.61-6.65,1.16c-4.31,1-7.82,3.93-11.71,5.98
				c-3.89,2.06-7.76,4.15-11.62,6.31c-3.84,2.24-7.73,4.3-11.57,6.59l0.35,0.97c4.42-0.74,8.74-1.79,13.1-2.73
				c4.32-1.05,8.61-2.2,12.85-3.47c4.25-1.25,8.85-1.69,12.64-4.1c1.9-1.14,3.76-2.45,5.47-4.01c1.73-1.54,3.41-3.23,4.83-5.49
				L159.88,111.68z"/>
			<path class="st7" d="M220.33,122.68c-1.72-1.85-3.58-3.48-5.4-5.19c-1.88-1.68-3.79-3.25-5.79-4.75
				c-1.98-1.48-3.66-3.67-6.18-4.21c-2.49-0.59-5.24-0.84-8.4,0.44l-0.32,0.79c1.34,3.11,3,4.91,4.87,6.49
				c1.82,1.63,4.45,1.71,6.73,2.54c2.28,0.83,4.58,1.64,6.92,2.42c2.39,0.7,4.7,1.55,7.12,2.21L220.33,122.68z"/>
			<path class="st4" d="M157.59,142.27c-0.99,2.94-1.56,5.81-2.26,8.47c-0.38,1.31-0.77,2.58-1.26,3.54
				c-0.25,0.45-0.5,0.84-0.7,0.99c-0.21,0.16-0.24,0.16-0.43,0.18c-0.37,0.09-1.49-0.2-2.57-0.75c-1.11-0.53-2.27-1.25-3.47-1.97
				c-2.36-1.49-4.77-3.15-7.55-4.52c1.2,2.86,2.89,5.36,4.95,7.62c1.03,1.14,2.21,2.18,3.62,3.13c1.4,0.85,3.1,1.84,5.65,1.61
				c1.27-0.13,2.6-0.8,3.41-1.71c0.82-0.89,1.25-1.82,1.6-2.69c0.58-1.74,0.75-3.35,0.73-4.92
				C159.3,148.11,158.73,145.14,157.59,142.27z"/>
			<path class="st4" d="M199.43,132.53c0.14,2.73,0.94,5.34,2.2,7.75c1.29,2.4,2.94,4.81,6.13,6.36c0.81,0.32,1.77,0.58,2.81,0.61
				c1.05,0.01,2.17-0.32,3.06-0.85c1.83-1.14,2.6-2.75,3.07-4.19c0.86-2.94,0.55-5.68-0.35-8.28c-1.22,2.47-2.13,4.84-3.33,6.6
				c-0.63,0.85-1.28,1.48-1.73,1.57c-0.41,0.12-0.72,0.08-1.48-0.2c-1.47-0.65-3.23-2.28-4.91-3.95
				C203.19,136.23,201.51,134.35,199.43,132.53z"/>
			<path class="st19" d="M98.44,176.08l3.46,9.49c0,0-4.8,3.35-8.9-4.85C85.68,166.03,98.44,176.08,98.44,176.08z"/>
		</g>
		<g>
			<path class="st20" d="M207.11,199.18l-0.11-3.23c-0.28,0.02-7.17,0.31-17.45,7.28l1.8,2.62
				C200.75,199.52,207.04,199.17,207.11,199.18z"/>
		</g>
	</g>
</g>
</svg>
