<?xml version="1.0" encoding="utf-8"?>
<!-- Generator: Adobe Illustrator 23.0.3, SVG Export Plug-In . SVG Version: 6.00 Build 0)  -->
<svg version="1.1" id="Layer_1" xmlns="http://www.w3.org/2000/svg" xmlns:xlink="http://www.w3.org/1999/xlink" x="0px" y="0px"
	 viewBox="0 0 300 300" style="enable-background:new 0 0 300 300;" xml:space="preserve">
<style type="text/css">
	.st0{fill:#EFA878;}
	.st1{fill:#D4956A;}
	.st2{fill:#493731;}
	.st3{fill:#3F2922;}
	.st4{fill:#D89C73;}
	.st5{fill:#EFB98F;}
	.st6{opacity:0.08;fill:#3F2922;}
	.st7{fill:#544038;}
	.st8{fill:#2E1E19;}
	.st9{fill:#57382F;}
	.st10{fill:#60473E;}
	.st11{fill:#FCBE92;}
	.st12{fill:#029680;}
	.st13{fill:#FFC7A1;}
	.st14{opacity:0.22;}
	.st15{fill:#FFE4DB;}
	.st16{fill:#DBBFB1;}
	.st17{fill:#B37B56;}
	.st18{fill:#028773;}
	.st19{fill:#2E2825;}
	.st20{fill:#1A1615;}
	.st21{fill:#21B79E;}
	.st22{fill:#02C2A6;}
	.st23{fill:#02AD94;}
	.st24{opacity:0.31;}
	.st25{opacity:0.31;fill:#EFB98F;}
</style>
<g>
	<path class="st0" d="M164.67,287.17c23.39-4.68,41.85-15.89,55.64-31.15c-1.25-0.77-2.46-1.55-3.75-2.33
		c-22.37-13.5-27.25-29.81-24.91-83.45l-60.1,22.62c0,0-9.57,53.8-28.88,63.29c-0.4,0.2-0.78,0.4-1.18,0.6
		C113.57,280.98,140.86,291.14,164.67,287.17z"/>
	<path class="st1" d="M191.64,170.24l-60.1,22.62c0,0-6.17,34.64-18.58,53.23c32.88,23.47,63.17,17.27,91.35-2.06
		C192.43,231.22,189.82,212.13,191.64,170.24z"/>
	<g>
		<path class="st2" d="M79.32,46.54c-3.66,6.43,1.49,15.6,11.3,29.81l18.07-33.77C108.69,42.58,85.43,35.78,79.32,46.54z"/>
		<path class="st3" d="M118.21,47.72c0,0-25.5,21.87-29.56,42.09c-2.11,10.52,1.42,30.01,1.42,30.01l-3.97-0.48
			c0,0-2.77-21.58-1.55-35.63c1.82-21.5,15.43-38.04,15.43-38.04L118.21,47.72z"/>
		<path class="st4" d="M79.31,128.68c-2.94,5.36,0.61,19.66,10,22.47c-1.26-5.25-2.2-9.09-2.3-9.44c0-0.02,0-0.02,0-0.02
			c-4.81-5.93-5.2-13.25-5.2-13.25C81.08,128.45,80.2,128.56,79.31,128.68z"/>
		<path class="st5" d="M89.28,114.84l-0.87-7.79c-0.52-5.81-0.72-12.43,0.24-17.22c0.32-1.32,0.67-2.63,1.04-3.93
			c4.78-14.71,19.2-29.49,25.52-35.44c12.09,6.21,24.19,15.67,28.96,10.81c1.47-1.5,3.37-2.5,5.55-3.17l0.01-0.02
			c4.06-1.25,9.03-1.41,13.78-1.71c2.14-0.16,4.23-0.34,6.17-0.65c3.58-0.6,6.63-1.69,8.48-3.99l0.02,0.01
			c2.44,0.34,3.22,1.59,3.22,1.59c-1,1.17,5.96,3.69,9.8,12.07c0.57,1.28,1.07,2.68,1.47,4.24c0.19,0.71,0.34,1.4,0.5,2.02
			c2.4,9.96,1.53,11.25,7.26,15.42c1.65,1.22,3.49,3.04,5.24,5.43h-0.02c0.19,0.4,4.37,8.64,1.76,30.99
			c-14.73-5-50.94-10.64-61.8-8.49c0,0-0.82-0.33-2.1-0.77v-0.02c-0.77-5.57-2.04-9.11-4.83-13.42c-0.03-0.04-0.05-0.1-0.09-0.15
			c-0.37-0.88-0.87-1.37-1.51-1.38c-2.14-0.05-4.31,5.25-6.02,13.52c-0.23,0.14-0.42,0.33-0.57,0.55c-0.24,0.35-0.38,0.76-0.43,1.25
			c-6.89-1.7-25.52-0.37-40.53,1.94C89.46,116,89.37,115.45,89.28,114.84z"/>
		<path class="st6" d="M88.64,89.83c0.32-1.32,0.67-2.63,1.04-3.93c4.78-14.71,19.2-29.49,25.52-35.44c2.13,1.1,4.27,2.29,6.36,3.49
			C101.7,69.3,97.29,91.37,99.45,115.2c-3.37,0.38-6.73,0.83-9.92,1.32c-0.07-0.52-0.16-1.08-0.25-1.68l-0.87-7.79
			C87.89,101.24,87.68,94.62,88.64,89.83z"/>
		<path class="st6" d="M102.87,63.66c4.67-5.71,9.39-10.43,12.33-13.21c12.09,6.21,24.19,15.67,28.96,10.81
			c0.96-0.98,2.11-1.72,3.39-2.32C134.95,70.79,118.82,70.11,102.87,63.66z"/>
		<path class="st7" d="M86.68,166.29c-5.96,1.73-7.28,17.26,7.23,20.58c0.25,0.07,0.5,0.11,0.76,0.16
			c17.15,3.29,22.43-8.29,29.16-8.49c6.6-0.18,20.54,0.83,20.54,0.83s6.37,0.67,21.73,8.44c15.36,7.79,37.45,1.37,38.66-10.15
			c0.09-0.81,0.12-1.58,0.1-2.26c-0.1-3.11-1.22-5.13-2.63-6.45c-2.78-2.57-6.8-2.39-6.8-2.39c3.12,1.28,5.79,11.01-10.46,11.68
			c-16.24,0.66-21.37-17.07-34.98-17.73c0,0-5.68,6.33-17.32,6.84c-0.09,0.01-0.16,0.01-0.25,0.01c-0.36,0.01-0.71,0-1.08-0.03
			c-4.11-0.39-5.01-2.58-4.83-8.56c-4.32-1.84-9.12,0.66-15.09,5.52c-4.73,3.85-10.6,10.8-16.58,12.01
			c-1.58,0.33-3.17,0.25-4.76-0.41C82.58,172.76,86.68,166.29,86.68,166.29z"/>
		<path class="st5" d="M87.01,141.7c0.09,0.35,1.04,4.19,2.3,9.44c1.78,7.49,4.18,17.89,5.55,25.12v0.02
			c5.98-1.21,11.85-8.16,16.58-12.01c5.97-4.86,10.77-7.35,15.09-5.52c0.14-4.33,0.84-10.63,1.34-19.66
			c0.04-0.7,0.07-1.38,0.14-2.06c-3.36,8.91-10.79,12.35-24.44,12.07C95.31,148.94,90.2,145.64,87.01,141.7z"/>
		<path class="st6" d="M126.55,158.06c-0.01,0.23-0.03,0.48-0.03,0.7c-4.32-1.84-9.12,0.66-15.09,5.52
			c-4.73,3.85-10.6,10.8-16.58,12.01v-0.02c-0.34-1.8-0.75-3.8-1.19-5.89C103.54,168.61,112.29,151.67,126.55,158.06z"/>
		<path class="st6" d="M79.31,128.68c0.89-0.12,1.77-0.23,2.5-0.25c0,0,0.39,7.32,5.2,13.25c0,0,0,0,0,0.02
			c3.19,3.93,8.3,7.24,16.55,7.41c13.65,0.27,21.08-3.16,24.44-12.07c-0.06,0.68-0.1,1.37-0.14,2.06c-0.04,0.62-0.08,1.2-0.11,1.79
			c-8.96,11.78-22.9,16.96-37.1,16c-0.47-2.02-0.93-3.97-1.35-5.75C79.92,148.34,76.37,134.04,79.31,128.68z"/>
		<path class="st3" d="M93.92,186.87c0,0-3.59,33.56-0.89,38.62c2.68,5.07,31.32,19.2,41.38,22.03
			c10.05,2.82,54.71-20.44,65.19-29.93c3.17-2.84,4.81-5.24,6.1-24.37c0.47-6.8,0.63-12.85,0.64-17.81l-1.47-0.01
			c0.02,0.69-0.02,1.45-0.1,2.26c-1.2,11.53-23.3,17.94-38.66,10.15c-15.36-7.77-21.73-8.44-21.73-8.44s-13.94-1.01-20.54-0.83
			c-6.73,0.2-12.01,11.78-29.16,8.49C94.41,186.98,94.17,186.94,93.92,186.87z"/>
		<path class="st8" d="M93.92,186.87c0.25,0.07,0.5,0.11,0.76,0.16c2.91,0.56,5.45,0.67,7.75,0.49
			c-7.27,19.73-3.36,41.18,33.04,60.18c-0.38-0.03-0.74-0.1-1.06-0.19c-10.06-2.83-38.7-16.95-41.38-22.03
			C90.32,220.43,93.92,186.87,93.92,186.87z"/>
		<path class="st9" d="M198.08,186.85c3.75-2.35,6.3-5.5,6.69-9.19c0.09-0.81,0.12-1.58,0.1-2.26l1.47,0.01
			c-0.01,4.96-0.17,11.01-0.64,17.81c-1.28,19.14-2.92,21.53-6.1,24.37c-10.49,9.49-55.14,32.75-65.19,29.93
			c-1.82-0.52-4.27-1.4-7.05-2.54c2.62-0.55,5.25-1.24,7.87-2.11C161.34,232.39,192.54,215.41,198.08,186.85z"/>
		<path class="st4" d="M114.06,183.55c3.83-2.37,6.65-4.91,9.78-5.01c6.6-0.18,20.54,0.83,20.54,0.83s4.11,0.44,13.65,4.61
			c2.36,1.03,5.03,2.29,8.08,3.83c3.31,1.68,6.95,2.7,10.62,3.15c-4.62,8.62-24.49,11.12-32.75-1.42l0,0
			c-6.25,1.01-12.77,0.38-19.15-1.52c-3.33,5.89-10.17,8.49-15.42,6.61c-3.55-1.62-5.92-4.09-7.63-7.07
			C107.04,187.3,110.9,185.51,114.06,183.55z"/>
		<path class="st6" d="M94.68,187.03c2.65,0.51,5.01,0.63,7.13,0.53c5.26-0.26,9.1-2.06,12.25-4c1.74-1.08,3.28-2.19,4.73-3.1
			c0.03-0.01,0.06-0.03,0.09-0.05c0.34-0.2,0.66-0.39,0.99-0.57c0.1-0.06,0.23-0.13,0.33-0.19c0.27-0.14,0.55-0.26,0.83-0.38
			c0.13-0.06,0.27-0.13,0.4-0.18c0.27-0.11,0.55-0.18,0.82-0.26c0.13-0.04,0.26-0.09,0.39-0.11c0.4-0.1,0.8-0.15,1.2-0.16
			c6.6-0.18,20.54,0.83,20.54,0.83s0.01,0,0.05,0.01c0.02,0,0.03,0.01,0.08,0.01c0.03,0,0.06,0.01,0.09,0.01
			c0.06,0.01,0.11,0.02,0.16,0.02c0.04,0.01,0.08,0.01,0.12,0.02c0.09,0.01,0.17,0.03,0.27,0.05c0.02,0,0.04,0.01,0.08,0.01
			c0.37,0.07,0.9,0.2,1.55,0.37c0.04,0.01,0.07,0.01,0.09,0.02c0.23,0.06,0.46,0.12,0.7,0.2c0.04,0.01,0.08,0.02,0.11,0.03
			c1.08,0.31,2.42,0.74,4.06,1.32c0.07,0.02,0.13,0.05,0.19,0.07c0.37,0.13,0.76,0.29,1.17,0.44c0.09,0.04,0.19,0.07,0.29,0.12
			c0.41,0.16,0.84,0.32,1.29,0.5c0.02,0.01,0.05,0.01,0.06,0.03c1.38,0.54,2.89,1.19,4.56,1.94c0.29,0.14,0.58,0.27,0.88,0.4
			c0.38,0.17,0.76,0.35,1.14,0.53c0.43,0.21,0.88,0.41,1.33,0.63c0.32,0.15,0.63,0.3,0.95,0.45c0.81,0.4,1.63,0.8,2.5,1.24
			c0.75,0.38,1.54,0.72,2.33,1.04c0.11,0.05,0.22,0.1,0.34,0.14c0.75,0.3,1.54,0.56,2.31,0.79c0.12,0.04,0.26,0.08,0.39,0.11
			c0.81,0.22,1.61,0.43,2.43,0.6c0.07,0.01,0.13,0.02,0.2,0.03c0.86,0.17,1.73,0.32,2.6,0.43c13.31,1.63,27.09-4.26,28.04-13.3
			c0.09-0.81,0.12-1.58,0.1-2.26l1.47,0.01c-0.01,3-0.09,6.43-0.23,10.14c-3.13,6.04-8.44,10.68-15.99,13.01
			c-22.96,7.75-38.14-24.79-64.6-16.47c-13.89,4.36-20.43,15.53-32.72,17.31c0.52-6.95,1.12-12.52,1.12-12.52
			C94.17,186.94,94.41,186.98,94.68,187.03z"/>
		<path class="st10" d="M87.37,34.04c-3.41,4.26-6.05,8.6-8.05,12.5c2.49-1.72,5.31-2.4,8.32-2.41c5.21,0.02,11.05,2.13,16.93,5.01
			c15.3,7.51,30.95,20.18,36.99,14.02c1.79-1.82,4.11-3.04,6.76-3.87l0.02-0.02c6.05-5.95-1.54-14.4-15.89-21.42
			C118.08,30.82,98.68,23.91,87.37,34.04z"/>
		<path class="st7" d="M99.6,22.03c-4.89,3.66-8.92,7.81-12.23,12.01c11.3-10.13,30.71-3.22,45.07,3.82
			c14.35,7.03,21.95,15.47,15.89,21.42c4.94-1.53,11.01-1.72,16.81-2.09v-0.03C172.27,46.38,135.23,14.08,99.6,22.03z"/>
		<path class="st2" d="M106.59,17.49c-2.48,1.38-4.83,2.89-6.98,4.54c35.62-7.95,72.67,24.35,65.55,35.13v0.03
			c2.61-0.19,5.17-0.41,7.52-0.79c10.11-8.28-11.92-41.96-63.63-40.17l-0.02,0C108.19,16.62,107.37,17.05,106.59,17.49z"/>
		<path class="st7" d="M109.04,16.23c51.71-1.79,73.74,31.89,63.63,40.17c4.37-0.73,8.08-2.06,10.35-4.87
			c0.18-0.22,0.37-0.45,0.52-0.67c0.1-0.17,0.24-0.35,0.37-0.5c0.06-0.07,0.08-0.12,0.1-0.19c5.61-8.44-8.79-30.84-50.56-39.16
			h-0.02C124.98,11.12,116.55,12.61,109.04,16.23z"/>
		<path class="st11" d="M126.52,158.76c-0.19,5.98,0.72,8.17,4.83,8.56c0.37,0.03,0.73,0.04,1.08,0.03c0.09,0,0.16,0,0.25-0.01
			c5.77-0.56,5.98-9.54,6.44-29.36c0.17-7.27,0.46-14.08,0.6-19.92c-3.95-1.71-8.2-1.7-9.62-0.02c0,0-0.03,0,0,0.02
			c-0.13,0.74-0.24,1.51-0.36,2.28c-0.74,5.06-1.35,10.72-1.73,16.68v0.02c-0.06,0.68-0.1,1.37-0.14,2.06
			C127.36,148.13,126.66,154.43,126.52,158.76z"/>
		<path class="st12" d="M129.74,118.6c-0.19,0.47-0.23,1.04-0.01,1.74c0.12-0.76,0.24-1.53,0.36-2.28
			C129.94,118.22,129.82,118.39,129.74,118.6z"/>
		<path class="st11" d="M137.07,99.27c-2.14-0.05-4.31,5.25-6.02,13.52c1.75-1.2,5.46-0.6,8.72,0.26
			c0.02-5.76-0.24-10.07-1.11-12.25c-0.03-0.04-0.05-0.1-0.09-0.15C138.22,99.77,137.71,99.28,137.07,99.27z"/>
		<path class="st13" d="M127.86,139.1c0.04-0.7,0.07-1.38,0.14-2.06v-0.02c0.38-5.96,0.99-11.62,1.73-16.68
			c0.12-0.76,0.24-1.53,0.36-2.28c-0.03-0.02,0-0.02,0-0.02c0.74-0.88,2.26-1.28,4.09-1.25c-3.5,13.77-6.79,46.45,3.67,43.26
			c-0.85,4.67-2.33,7-5.18,7.28c-0.09,0.01-0.16,0.01-0.25,0.01c-0.36,0.01-0.71,0-1.08-0.03c-4.11-0.39-5.01-2.58-4.83-8.56
			C126.66,154.43,127.36,148.13,127.86,139.1z"/>
		<path class="st11" d="M139.78,113.05c-1.44-0.38-2.96-0.7-4.38-0.85c1.05-3.71,2.19-7.41,3.35-11.12
			C139.55,103.32,139.8,107.5,139.78,113.05z"/>
		<path class="st13" d="M131.06,112.78c1.71-8.27,3.88-13.57,6.02-13.52c0.64,0.02,1.14,0.5,1.51,1.38
			c0.04,0.04,0.06,0.11,0.09,0.15c0.03,0.08,0.06,0.19,0.08,0.28c-1.16,3.71-2.3,7.41-3.35,11.12
			C133.63,112.01,132.03,112.11,131.06,112.78z"/>
		<path class="st10" d="M184.1,26.86c-8.54-7.6-29.7-16.1-50.64-15.86c41.77,8.32,56.17,30.73,50.56,39.16
			c4-5.73,7.42-9.01,7.32-12.77C191.3,34.56,189.27,31.45,184.1,26.86z"/>
		<path class="st4" d="M138.67,100.8c0.87,2.18,1.13,6.49,1.11,12.25c1.39,0.39,2.71,0.8,3.72,1.19v-0.02
			C142.73,108.64,141.46,105.1,138.67,100.8z"/>
		<path class="st4" d="M139.12,137.98c-0.46,19.81-0.66,28.8-6.44,29.36c11.64-0.51,17.32-6.84,17.32-6.84
			c1.32-12.56-4.44-9.94-4.44-9.94s0.44-3.95-0.73-20.74c-0.23-3.34-0.43-6.24-0.62-8.75c-1.29-1.3-2.89-2.31-4.5-3.01
			C139.57,123.9,139.28,130.71,139.12,137.98z"/>
		<path class="st5" d="M145.09,122.04c-0.27-0.33-0.58-0.66-0.88-0.97c0.19,2.51,0.39,5.41,0.62,8.75
			c1.17,16.79,0.73,20.74,0.73,20.74s5.76-2.62,4.44,9.94c13.62,0.66,18.74,18.4,34.98,17.73c16.25-0.66,13.58-10.4,10.46-11.68
			c0,0,4.03-0.17,6.8,2.39c0.83-15.28,3.45-27.7,4.07-35.33c-1.88,0.43-5.46-0.57-7.78-0.76c0,0-2.23,22.48-25.23,21.88
			c-22.23-0.6-29.24-9.27-28.22-32.68V122.04z"/>
		<g class="st14">
			<path class="st15" d="M197.13,84.21c0.77,0.9,1.8,1.78,3.29,2.87c1.65,1.22,3.49,3.04,5.24,5.43h-0.02
				c0.19,0.4,4.37,8.64,1.76,30.99c-2.03-0.69-4.46-1.39-7.17-2.07C201.04,108.92,200.02,96.31,197.13,84.21z"/>
			<path class="st15" d="M206.32,133.62c-0.62,7.63-3.24,20.05-4.07,35.33c-2.78-2.57-6.8-2.39-6.8-2.39
				c3.12,1.28,5.79,11.01-10.46,11.68c-0.81,0.03-1.56-0.01-2.31-0.06c8.32-13.71,13.81-29.23,16.29-45.26
				C201.27,133.18,204.54,134.03,206.32,133.62z"/>
		</g>
		<path class="st16" d="M198.54,132.86c2.32,0.2,5.9,1.2,7.78,0.76c-0.02,0.12-0.03,0.27-0.05,0.39c-2.72,0.73-5.44,1.16-8.16,1.25
			C198.44,133.79,198.54,132.86,198.54,132.86z"/>
		<path class="st6" d="M145.66,149.88c-2.75-2.52-4.93-5.35-6.63-8.35c0.03-1.14,0.05-2.33,0.08-3.55
			c0.17-7.27,0.46-14.08,0.6-19.92c1.61,0.7,3.21,1.71,4.5,3.01c0.3,0.31,0.61,0.63,0.88,0.97v0.02
			c-1.03,23.41,5.98,32.09,28.22,32.68c6.55,0.17,11.4-1.55,15.01-4.08C176.84,163.22,155.92,162.42,145.66,149.88z"/>
		<path class="st10" d="M181.39,53.33c-1,1.17,5.96,3.69,9.8,12.07c0,0,15.83-4.96,27.44,12.65c-5.51-25.61-28.95-36.35-28.95-36.35
			C186.14,49.24,181.39,53.33,181.39,53.33z"/>
		<path class="st7" d="M191.18,65.4c0.57,1.28,1.07,2.68,1.47,4.24c0.19,0.71,0.34,1.4,0.5,2.02l0.01,0c0,0,16.21,2.61,26.59,18.68
			c0.11-4.44-0.32-8.53-1.14-12.3C207.02,60.44,191.18,65.4,191.18,65.4z"/>
		<path class="st7" d="M193.17,71.66l-0.01,0c2.4,9.96,1.53,11.25,7.26,15.42c1.65,1.22,3.49,3.04,5.24,5.43
			c4.71,6.38,8.7,16.69,6,28.99c5.56-11.84,7.91-22.19,8.09-31.16C209.38,74.27,193.17,71.66,193.17,71.66z"/>
		<path class="st3" d="M206.54,157.5c0.68-4.15,1.34-8.36,1.91-12.35c0.95-6.4,1.75-12.26,2.3-16.56c0.58-4.36,0.91-7.09,0.91-7.09
			c2.69-12.3-1.29-22.61-6-28.99h-0.02c0.19,0.4,4.37,8.64,1.76,30.99c0.04,0.02,0.08,0.03,0.12,0.04c2.36,0.8,2.39,6.23-0.22,9.52
			c-0.21,0.28-0.54,0.47-0.98,0.56c-0.62,7.63-3.24,20.05-4.07,35.33c1.41,1.32,2.53,3.33,2.63,6.45l1.47,0.01
			c0.04-8.92-0.41-14.3-0.41-14.3C206.13,159.91,206.33,158.71,206.54,157.5z"/>
		<path class="st4" d="M206.54,157.5c21.53,1.68,23.5-38.86,5.12-36c0,0-0.33,2.73-0.91,7.09h0.03c6.1-0.21,8.04,5.18,6.68,11.03
			c-1.35,5.83-5.48,7.02-8.99,5.53h-0.02C207.87,149.14,207.22,153.35,206.54,157.5z"/>
		<path class="st17" d="M208.45,145.15h0.02c3.51,1.49,7.65,0.3,8.99-5.53c1.36-5.85-0.58-11.24-6.68-11.03h-0.03
			C210.2,132.89,209.4,138.75,208.45,145.15z"/>
		<path class="st6" d="M206.54,157.5c0.68-4.15,1.34-8.36,1.91-12.35c0.95-6.4,1.75-12.26,2.3-16.56c0.58-4.36,0.91-7.09,0.91-7.09
			c1.52-0.23,2.87-0.15,4.12,0.16c-1.36,11.77-2.25,23.54-3.51,35.2C210.55,157.41,208.64,157.66,206.54,157.5z"/>
		<path class="st7" d="M86.16,117.88c0.13-0.85,0.57-2.41,1.4-4.21c1.43-3.16,4.06-7.05,8.21-9.08c0.85-0.4,1.82-0.79,2.87-1.16
			c1.89,0.03,3.78,0.25,5.65,0.66c-1.31-0.49-2.66-0.88-4.04-1.18c1.55-0.46,3.22-0.87,4.91-1.23c3.44,0.54,6.87,1.4,10.19,2.67
			c-2.14-1.27-4.41-2.37-6.73-3.32c0.95-0.17,1.87-0.29,2.78-0.41c3.26,1.25,6.37,2.88,9.15,5.1c-1.91-2.08-4.17-3.83-6.59-5.37
			c3.41-0.28,5.99-0.16,6.55,0.48c1.56,1.78,4.27,9.78,2.2,10.08c-2.08,0.29-21.94,0.7-26.84,2.66c-2.42,0.98-4.85,2.52-6.65,3.66
			l0.02,0.08C88.2,117.49,87.16,117.67,86.16,117.88z"/>
		<path class="st12" d="M74.13,119.67c-2.15,0.63-2.4,5.5-0.2,8.58c0.7,0.97,3.11,0.71,5.38,0.43c0.89-0.12,1.77-0.23,2.5-0.25
			c0,0,0.39,7.32,5.2,13.25c0,0,0,0,0,0.02c3.19,3.93,8.3,7.24,16.55,7.41c13.65,0.27,21.08-3.16,24.44-12.07v-0.02
			c0.38-5.96,0.99-11.62,1.73-16.68c-0.22-0.69-0.17-1.27,0.01-1.74c0.1-2.32,0.75-5.27,0.75-5.27c-0.24,0.35-0.38,0.76-0.43,1.25
			c-7.52-1.85-28.99-0.11-44.5,2.58c-1.06,0.18-2.1,0.37-3.1,0.57C79.26,118.34,76.41,119,74.13,119.67z M107.51,144.31
			c-19.03,0.62-20.92-10.9-22.52-22.03c17.58-4.13,40.84-3.78,40.84-3.78C125.86,124.06,128.77,143.64,107.51,144.31z"/>
		<path class="st18" d="M74.13,119.67c0.66-0.19,1.37-0.39,2.11-0.57c-0.41,3.35,0.17,6.65,1.49,9.76c-1.72,0.16-3.27,0.14-3.8-0.61
			C71.72,125.17,71.98,120.31,74.13,119.67z"/>
		<path class="st12" d="M76.24,119.1c1.84-0.47,3.93-0.93,6.22-1.37c0.99-0.2,2.04-0.39,3.1-0.57c15.5-2.69,36.98-4.43,44.5-2.58
			c0.05-0.49,0.19-0.91,0.43-1.25c0,0-0.65,2.95-0.75,5.27c-0.19,0.47-0.23,1.04-0.01,1.74c-0.74,5.06-1.35,10.72-1.73,16.68v0.02
			c-3.36,8.91-10.79,12.35-24.44,12.07c-8.25-0.17-13.36-3.47-16.55-7.41c0-0.02,0-0.02,0-0.02c-0.61-0.74-1.14-1.51-1.61-2.28
			c2.05,1.94,4.27,3.67,6.52,5.09c-2.24-1.42-4.47-3.15-6.52-5.09c-3.3-5.38-3.59-10.97-3.59-10.97c-0.73,0.02-1.61,0.12-2.5,0.25
			c-0.52,0.07-1.06,0.13-1.58,0.18C76.41,125.75,75.83,122.45,76.24,119.1z M107.51,144.31c21.26-0.67,18.35-20.26,18.32-25.81
			c0,0-23.26-0.35-40.84,3.78C86.6,133.41,88.48,144.93,107.51,144.31z"/>
		<path class="st19" d="M84.99,122.29c1.6,11.12,3.49,22.64,22.52,22.03c21.26-0.67,18.35-20.26,18.32-25.81
			C125.83,118.51,102.57,118.16,84.99,122.29z"/>
		<path class="st20" d="M89.58,121.34c6.76,7.54,13.37,15.18,19.85,22.83c-0.62,0.06-1.23,0.12-1.92,0.14
			c-0.95,0.03-1.82,0-2.69-0.02c-6.13-7.31-12.33-14.65-18.19-22.35C87.61,121.74,88.58,121.53,89.58,121.34z"/>
		<path class="st20" d="M111.93,143.82c-6.33-7.9-12.94-15.52-19.76-22.93c5.64-0.92,11.45-1.5,16.63-1.84
			c5.16,5.57,9.77,11.61,14.19,17.75C120.95,140.09,117.52,142.76,111.93,143.82z"/>
		<path class="st6" d="M133.19,104.75c-0.76,2.15-1.48,4.88-2.13,8.03c-0.23,0.14-0.42,0.33-0.57,0.55c0,0-0.65,2.95-0.75,5.27
			c-0.19,0.47-0.23,1.04-0.01,1.74c-0.74,5.06-1.35,10.72-1.73,16.68v0.02c-0.06,0.68-0.1,1.37-0.14,2.06
			c-0.5,9.02-1.2,15.32-1.34,19.66c-1.47-0.62-2.99-0.73-4.6-0.44c1-15.14,3.01-30.29,6.64-45.13
			C129.93,110.31,131.46,107.49,133.19,104.75z"/>
		<path class="st21" d="M144.21,121.07c0.3,0.31,0.61,0.63,0.88,0.97c0.1-2.21,0.27-4.55,0.5-7.03c0,0-0.82-0.33-2.1-0.77
			c-1.01-0.38-2.33-0.8-3.72-1.19c-3.26-0.86-6.97-1.46-8.72-0.26c-0.23,0.14-0.42,0.33-0.57,0.55c0,0-0.65,2.95-0.75,5.27
			c0.09-0.21,0.2-0.37,0.35-0.54c-0.03-0.02,0-0.02,0-0.02c1.42-1.69,5.67-1.69,9.62,0.02
			C141.32,118.76,142.92,119.77,144.21,121.07z"/>
		<path class="st22" d="M129.74,118.6c0.1-2.32,0.75-5.27,0.75-5.27c0.15-0.22,0.34-0.4,0.57-0.55c1.21-0.83,3.35-0.79,5.64-0.41
			c-0.44,1.49-0.74,3.01-0.93,4.56c-2.53-0.37-4.74-0.02-5.68,1.11c0,0-0.03,0,0,0.02C129.94,118.22,129.82,118.39,129.74,118.6z"/>
		<path class="st12" d="M135.77,116.94c0.2-1.55,0.5-3.07,0.93-4.56c1.02,0.17,2.07,0.41,3.08,0.67c0.93,0.26,1.77,0.52,2.56,0.79
			c-0.04,1.84-0.08,3.72-0.13,5.62c-0.8-0.55-1.65-1.02-2.5-1.39C138.38,117.49,137.04,117.13,135.77,116.94z"/>
		<path class="st12" d="M207.4,123.5c-14.73-5-50.94-10.64-61.8-8.49c-0.23,2.49-0.4,4.82-0.5,7.03v0.02
			c-1.03,23.41,5.98,32.09,28.22,32.68c22.99,0.6,25.23-21.88,25.23-21.88c2.32,0.2,5.9,1.2,7.78,0.76c0.43-0.1,0.76-0.28,0.98-0.56
			c2.61-3.3,2.59-8.72,0.22-9.52C207.48,123.52,207.43,123.51,207.4,123.5z M169.12,149.22c-23.58-1.85-19.34-23.47-19.02-29.63
			c0,0,25.86,0.79,45.19,6.28C192.96,138.16,190.25,150.89,169.12,149.22z"/>
		<path class="st23" d="M145.51,115.96c0.04-0.33,0.06-0.63,0.09-0.96c10.86-2.15,47.07,3.49,61.8,8.49
			c0.04,0.02,0.08,0.03,0.12,0.04c2.36,0.8,2.39,6.23-0.22,9.52c-0.21,0.28-0.54,0.47-0.98,0.56c-0.48,0.11-1.05,0.12-1.68,0.09
			c1.49-1.3,3.28-8.08,1.87-8.46C186.33,119.91,166.37,115.08,145.51,115.96z"/>
		<path class="st19" d="M150.1,119.58c-0.32,6.17-4.56,27.78,19.02,29.63c21.12,1.67,23.83-11.06,26.17-23.35
			C175.97,120.37,150.1,119.58,150.1,119.58z"/>
		<path class="st20" d="M159.75,120.16c4.53,0.35,10.25,0.92,16.29,1.79c4.54,6.86,8.91,13.82,13.14,20.93
			c-2.56,3.14-6.3,5.39-11.96,6.17C171.78,139.2,165.78,129.76,159.75,120.16z"/>
		<path class="st20" d="M150.1,119.58c0,0,1.35,0.05,3.62,0.17c6.46,9.31,12.31,19.28,17.99,29.58c-0.84-0.01-1.69-0.04-2.59-0.12
			c-1-0.08-1.94-0.21-2.84-0.35c-5.4-9.56-10.96-19.15-16.19-29.06C150.09,119.73,150.1,119.65,150.1,119.58z"/>
		<g>
			<path class="st5" d="M178.73,57.32c0.18,0,0.38-0.07,0.55-0.21c5.68-5.42,10.86-14.64,11.08-15.02c0.2-0.37,0.06-0.85-0.3-1.06
				c-0.37-0.21-0.85-0.08-1.06,0.29c-0.05,0.1-5.28,9.41-10.78,14.66c-0.31,0.3-0.33,0.79-0.04,1.1
				C178.33,57.23,178.53,57.31,178.73,57.32z"/>
		</g>
		<path class="st7" d="M159.64,101.51c0.51-0.53,2.11-0.75,4.35-0.71c-0.99,1.91-1.89,3.86-2.66,5.86c1.16-2.04,2.45-3.97,3.86-5.83
			c1.39,0.06,2.96,0.21,4.62,0.42c-2.29,2.03-4.38,4.28-6.07,6.78c2.47-2.6,5.35-4.7,8.4-6.46c4.71,0.73,9.87,1.91,14.03,3.34
			c-2.81,0.55-5.6,1.24-8.31,2.12c3.16-0.66,6.35-1.1,9.55-1.33c0.27-0.02,0.53-0.01,0.79-0.04c0.1,0.05,0.23,0.09,0.34,0.13
			c1.25,0.52,2.5,1.17,3.73,1.9c-2.87,0.08-5.72,0.36-8.55,0.79c3.36-0.21,6.73-0.17,10.05,0.14c2.3,1.49,4.46,3.23,6.32,4.92
			c-0.37-0.1-0.73-0.25-1.11-0.35c-2.79-0.73-5.66-1.23-8.54-1.13c2.86,0.25,5.61,1.08,8.22,2.12c1.33,0.53,2.65,1.14,3.94,1.8
			c2.48,2.61,3.89,4.72,3.37,5.08c-1.23,0.82-13.47-5.85-22.68-7.44c-9.23-1.58-26.2,1.46-26.5-1.65
			C156.38,107.52,157.69,103.53,159.64,101.51z"/>
		<path class="st23" d="M196.72,133.01c0,0,0.54-0.06,1.78,0.15c-0.36,2.64-3.75,22.14-25.19,21.58
			c-8.71-0.24-15.06-1.73-19.52-4.84c4.34,2.42,10.18,3.63,17.88,3.83C191.48,154.24,195.88,137.62,196.72,133.01z"/>
		<g class="st24">
			<path class="st5" d="M144.96,54.61c0.27-0.15,0.48-0.65,0.43-1c-0.03-0.37-0.15-0.74-0.3-1.05c-0.3-0.64-0.71-1.21-1.11-1.76
				c-0.9-1.08-1.88-2.01-2.88-2.93c-2.05-1.8-4.28-3.34-6.54-4.82c-4.59-2.88-9.57-5.02-14.66-6.81
				c-5.07-1.77-10.36-3.11-15.75-3.53c-5.33-0.37-11.02,0.25-15.59,3.2l0.12,0.17c4.66-2.66,10.2-2.97,15.39-2.34
				c5.24,0.61,10.35,2.12,15.26,4.06c4.9,1.96,9.58,4.46,14.18,7.03c2.31,1.26,4.54,2.67,6.7,4.16c1.07,0.75,2.12,1.55,3.06,2.44
				c0.48,0.43,0.93,0.9,1.29,1.41c0.34,0.5,0.68,1.12,0.25,1.62L144.96,54.61z"/>
		</g>
		<g class="st24">
			<path class="st5" d="M161.52,51.61c0.54-0.5,0.55-1.34,0.46-1.98c-0.1-0.66-0.27-1.3-0.5-1.92c-0.49-1.21-1.12-2.34-1.83-3.4
				c-1.41-2.13-3.13-4.02-4.97-5.78c-3.67-3.51-8.13-6.02-12.6-8.25c-4.49-2.22-9.2-3.96-14.01-5.21
				c-4.84-1.21-9.76-1.91-14.69-2.14l-0.03,0.31c4.87,0.64,9.66,1.74,14.27,3.32c4.63,1.52,9.1,3.5,13.29,5.91
				c4.22,2.4,7.99,5.42,11.73,8.39c1.86,1.5,3.64,3.1,5.31,4.8c0.81,0.87,1.6,1.76,2.28,2.72c0.64,0.92,1.42,2.02,1.04,3.05
				L161.52,51.61z"/>
		</g>
		<g class="st24">
			<path class="st5" d="M179.32,42.43c0.45-1.52,0-3.15-0.58-4.55c-0.59-1.44-1.46-2.72-2.41-3.92c-1.93-2.39-4.41-4.18-6.86-5.85
				c-4.91-3.38-10.22-6.02-15.64-8.32l-0.09,0.18c5.15,2.83,10.19,5.88,14.75,9.47c2.26,1.82,4.31,3.86,6.27,5.89
				c1.89,2.06,3.9,4.21,4.35,7.08L179.32,42.43z"/>
		</g>
		<g class="st24">
			<path class="st5" d="M154.27,48.36c-1.54-2.74-3.71-5.04-6-7.13c-2.34-2.08-5.01-3.71-7.73-5.21c-2.69-1.53-5.5-2.85-8.37-3.99
				c-2.89-1.11-5.83-2.02-8.81-2.73l-0.07,0.2c5.8,1.97,11.32,4.63,16.39,7.93c2.53,1.67,4.86,3.59,7.28,5.39
				c2.42,1.81,4.78,3.68,7.15,5.66L154.27,48.36z"/>
		</g>
		<g class="st24">
			<path class="st5" d="M169.4,45.52c-0.81-3.09-2.6-5.8-4.61-8.23c-2.05-2.42-4.62-4.34-7.23-6.07c-5.22-3.52-11.03-5.96-17-7.6
				l-0.05,0.2c5.77,2.19,11.26,5.06,16.09,8.75c2.41,1.87,4.53,4.01,6.66,6.13c2.12,2.12,4.14,4.38,5.93,6.9L169.4,45.52z"/>
		</g>
		<g class="st24">
			<path class="st5" d="M137.06,59.34c-1,0.15-1.96-0.43-2.87-0.93c-0.93-0.51-1.82-1.08-2.72-1.67c-1.78-1.19-3.59-2.37-5.4-3.53
				c-3.65-2.32-7.56-4.27-11.52-6.05c-3.96-1.78-8.07-3.31-12.3-4.33c-4.24-0.98-8.63-1.44-12.93-1.05l0.01,0.21
				c4.3-0.12,8.58,0.61,12.65,1.84c4.1,1.2,8.05,2.89,11.85,4.83c3.82,1.95,7.41,4.26,11.19,6.34c1.89,1.03,3.78,2.09,5.75,3.01
				c1,0.45,2,0.91,3.04,1.28c1.03,0.28,2.22,0.76,3.33,0.26L137.06,59.34z"/>
		</g>
		<g class="st24">
			<path class="st5" d="M193.65,48.66c1.72,1.3,3.33,2.51,4.88,3.81c1.54,1.3,3.2,2.46,4.63,3.92c2.87,2.89,5.21,6.37,7,10.14
				l0.19-0.07c-0.63-2-1.43-3.96-2.4-5.86c-1.02-1.86-2.2-3.66-3.56-5.32c-1.35-1.65-2.8-3.32-4.66-4.48
				c-1.81-1.15-3.85-2.07-6.02-2.32L193.65,48.66z"/>
		</g>
		<path class="st25" d="M195.32,74.16c2.28,0.53,4.49,1.29,6.69,2.15c2.19,0.89,4.33,1.94,6.36,3.23c2.03,1.26,4.25,2.49,5.71,4.52
			c0.23,0.33,0.45,0.67,0.67,1.01c-0.24-1.2-0.53-2.39-0.8-3.59c-0.63-2.73-1.4-5.42-2.38-8.14c-1.38-0.72-2.62-1.38-3.89-2.01
			c-1.27-0.6-2.44-1.43-3.78-2c-2.64-1.13-5.54-1.79-8.51-2.12l0-0.21c3-0.27,6.09-0.09,9.06,0.76c1.48,0.42,3.04,0.84,4.31,1.8
			c1.24,0.93,2.4,2.11,2.97,3.65l-0.08,0.06l0.08-0.05c1.99,2.2,3.27,4.92,4.21,7.7c0.91,2.81,1.18,5.78,1.21,8.7
			c0.18,5.86-0.99,11.68-3.12,17.02l-0.2-0.07c1.47-5.19,2.08-10.59,1.71-15.89c-1.62-1.35-3.1-2.59-4.53-3.83
			c-1.67-1.36-2.92-3.19-4.61-4.65c-1.67-1.46-3.48-2.8-5.37-4.07c-1.87-1.31-3.87-2.45-5.89-3.59L195.32,74.16z"/>
	</g>
</g>
</svg>
